<svg width="44" height="42" viewBox="0 0 44 42" fill="none" xmlns="http://www.w3.org/2000/svg">
<path d="M11.7254 8.01962V9.54901C12.2514 9.54901 12.7405 9.27872 13.0204 8.83335L11.7254 8.01962ZM14.5931 3.45615L13.2981 2.64241V2.64241L14.5931 3.45615ZM29.2497 3.45615L30.5447 2.64241L29.2497 3.45615ZM32.1174 8.01962L30.8224 8.83335C31.1023 9.27872 31.5914 9.54901 32.1174 9.54901V8.01962ZM28.039 24.2451H26.5096C26.5096 27.0713 24.3714 29.2059 21.9214 29.2059V30.7353V32.2647C26.2286 32.2647 29.5684 28.5877 29.5684 24.2451H28.039ZM21.9214 30.7353V29.2059C19.4713 29.2059 17.3332 27.0713 17.3332 24.2451H15.8038H14.2744C14.2744 28.5877 17.6141 32.2647 21.9214 32.2647V30.7353ZM15.8038 24.2451H17.3332C17.3332 21.4189 19.4713 19.2843 21.9214 19.2843V17.7549V16.2255C17.6141 16.2255 14.2744 19.9024 14.2744 24.2451H15.8038ZM21.9214 17.7549V19.2843C24.3714 19.2843 26.5096 21.4189 26.5096 24.2451H28.039H29.5684C29.5684 19.9024 26.2286 16.2255 21.9214 16.2255V17.7549ZM11.7254 8.01962L13.0204 8.83335L15.888 4.26988L14.5931 3.45615L13.2981 2.64241L10.4305 7.20588L11.7254 8.01962ZM17.9865 1.52943V3.05883H25.8563V1.52943V3.31431e-05H17.9865V1.52943ZM29.2497 3.45615L27.9548 4.26989L30.8224 8.83335L32.1174 8.01962L33.4123 7.20588L30.5447 2.64241L29.2497 3.45615ZM25.8563 1.52943V3.05883C26.6674 3.05883 27.4638 3.4886 27.9548 4.26989L29.2497 3.45615L30.5447 2.64241C29.5228 1.01629 27.7724 3.31431e-05 25.8563 3.31431e-05V1.52943ZM14.5931 3.45615L15.888 4.26989C16.379 3.4886 17.1754 3.05883 17.9865 3.05883V1.52943V3.31431e-05C16.0703 3.31431e-05 14.32 1.01628 13.2981 2.64241L14.5931 3.45615ZM42.3134 16.6732H40.784V31.817H42.3134H43.8427V16.6732H42.3134ZM34.1566 40.4705V38.9411H9.68621V40.4705V41.9999H34.1566V40.4705ZM1.52943 31.817H3.05883V16.6732H1.52943H3.31431e-05V31.817H1.52943ZM9.68621 40.4705V38.9411C6.10994 38.9411 3.05883 35.838 3.05883 31.817H1.52943H3.31431e-05C3.31431e-05 37.3544 4.25275 41.9999 9.68621 41.9999V40.4705ZM42.3134 31.817H40.784C40.784 35.838 37.7328 38.9411 34.1566 38.9411V40.4705V41.9999C39.59 41.9999 43.8427 37.3544 43.8427 31.817H42.3134ZM34.1566 8.01962V9.54901C37.7328 9.54901 40.784 12.6522 40.784 16.6732H42.3134H43.8427C43.8427 11.1357 39.59 6.49022 34.1566 6.49022V8.01962ZM9.68621 8.01962V6.49022C4.25275 6.49022 3.31431e-05 11.1357 3.31431e-05 16.6732H1.52943H3.05883C3.05883 12.6522 6.10994 9.54901 9.68621 9.54901V8.01962ZM9.68621 8.01962V9.54901H11.7254V8.01962V6.49022H9.68621V8.01962ZM34.1566 8.01962V6.49022H32.1174V8.01962V9.54901H34.1566V8.01962Z" fill="white"/>
</svg>
