<svg width="29" height="29" viewBox="0 0 29 29" fill="none" xmlns="http://www.w3.org/2000/svg">
<path fill-rule="evenodd" clip-rule="evenodd" d="M25.5928 15.5704C25.6487 15.127 25.686 14.6659 25.686 14.1871C25.686 13.7083 25.6487 13.2472 25.5742 12.8039L28.7249 10.463C29.0045 10.2502 29.0791 9.86005 28.9113 9.55857L25.9284 4.64628C25.742 4.32707 25.3504 4.22067 25.0149 4.32707L21.3048 5.74578C20.5218 5.1783 19.7015 4.71722 18.788 4.36254L18.2287 0.602953C18.1728 0.248275 17.8558 0 17.483 0H11.5171C11.1442 0 10.8459 0.248275 10.79 0.602953L10.2307 4.36254C9.31718 4.71722 8.47823 5.19603 7.71385 5.74578L4.00383 4.32707C3.66825 4.20293 3.27674 4.32707 3.09031 4.64628L0.107377 9.55857C-0.0790564 9.87778 -0.00448311 10.2502 0.29381 10.463L3.44453 12.8039C3.36996 13.2472 3.31403 13.726 3.31403 14.1871C3.31403 14.6482 3.35132 15.127 3.42589 15.5704L0.275167 17.9112C-0.00448313 18.124 -0.0790564 18.5142 0.0887335 18.8157L3.07167 23.728C3.2581 24.0472 3.64961 24.1536 3.98519 24.0472L7.69521 22.6285C8.47823 23.1959 9.29854 23.657 10.2121 24.0117L10.7714 27.7713C10.8459 28.126 11.1442 28.3742 11.5171 28.3742H17.483C17.8558 28.3742 18.1728 28.126 18.21 27.7713L18.7693 24.0117C19.6829 23.657 20.5218 23.1782 21.2862 22.6285L24.9962 24.0472C25.3318 24.1713 25.7233 24.0472 25.9097 23.728L28.8927 18.8157C29.0791 18.4965 29.0045 18.124 28.7062 17.9112L25.5928 15.5704ZM14.5001 19.5073C11.4239 19.5073 8.90708 17.1132 8.90708 14.1871C8.90708 11.261 11.4239 8.86695 14.5001 8.86695C17.5762 8.86695 20.0931 11.261 20.0931 14.1871C20.0931 17.1132 17.5762 19.5073 14.5001 19.5073Z" fill="#30384C"/>
</svg>
