<svg width="433" height="154" viewBox="0 0 433 154" fill="none" xmlns="http://www.w3.org/2000/svg">
<g filter="url(#filter0_f_1_1146)">
<path d="M20.8108 20.8108H355.865C373.493 20.8108 382.307 20.8108 389.245 23.7321C398.217 27.51 405.355 34.6479 409.133 43.6198C412.054 50.5576 412.054 59.3717 412.054 77C412.054 94.6282 412.054 103.442 409.133 110.38C405.355 119.352 398.217 126.49 389.245 130.268C382.307 133.189 373.493 133.189 355.865 133.189H95.3598C60.2171 133.189 42.6457 133.189 31.7282 122.272C20.8108 111.354 20.8108 93.7829 20.8108 58.6402V20.8108Z" fill="black"/>
</g>
<defs>
<filter id="filter0_f_1_1146" x="-1.90955e-06" y="-3.24624e-05" width="432.865" height="154" filterUnits="userSpaceOnUse" color-interpolation-filters="sRGB">
<feFlood flood-opacity="0" result="BackgroundImageFix"/>
<feBlend mode="normal" in="SourceGraphic" in2="BackgroundImageFix" result="shape"/>
<feGaussianBlur stdDeviation="10.3934" result="effect1_foregroundBlur_1_1146"/>
</filter>
</defs>
</svg>
