<svg width="298" height="350" viewBox="0 0 298 350" fill="none" xmlns="http://www.w3.org/2000/svg">
<path d="M2.75818 20.4223C4.64588 21.8307 6.76342 22.5349 9.11081 22.5349C11.243 22.5349 12.3091 21.8992 12.3091 20.6277C12.3091 19.6594 11.0963 18.7693 8.67067 17.9575L7.14487 17.4587C5.3452 16.8523 4.10793 16.2997 3.43306 15.8009C2.33761 14.9793 1.78988 13.8105 1.78988 12.2945C1.78988 10.6122 2.52833 9.2673 4.00523 8.25988C5.17893 7.45785 6.65583 7.05684 8.43593 7.05684C11.1354 7.05684 13.5611 7.72683 15.7128 9.06679L13.8496 12.0744C12.2651 10.8713 10.5486 10.2698 8.70001 10.2698C7.93711 10.2698 7.31114 10.4068 6.8221 10.6806C6.21569 11.0132 5.91249 11.4973 5.91249 12.1331C5.91249 12.6221 6.17657 13.0427 6.70473 13.3948C7.12531 13.6882 7.8931 14.0012 9.00811 14.3338L10.6366 14.8032C14.5587 15.9671 16.5198 17.8548 16.5198 20.4663C16.5198 21.7769 16.0405 22.9457 15.082 23.9727C13.8692 25.2736 11.7663 25.924 8.77337 25.924C5.85869 25.924 3.23255 25.0731 0.894942 23.3712L2.75818 20.4223ZM36.1721 17.2533H22.9534C23.0218 18.8085 23.5109 20.0702 24.4205 21.0385C25.5159 22.1828 26.9097 22.755 28.6018 22.755C30.5971 22.755 32.3625 21.8209 33.8981 19.9528L36.2455 22.3295C34.3186 24.7552 31.6485 25.968 28.235 25.968C25.4377 25.968 23.1832 25.0731 21.4716 23.2832C19.8382 21.5618 19.0215 19.3415 19.0215 16.6225C19.0215 14.412 19.5545 12.4901 20.6206 10.8567C21.5694 9.40912 22.836 8.35769 24.4205 7.70237C25.5062 7.25246 26.6652 7.0275 27.8976 7.0275C29.8635 7.0275 31.5409 7.57522 32.9298 8.67067C34.3676 9.78568 35.3358 11.3457 35.8347 13.3508C36.0596 14.2604 36.1721 15.2189 36.1721 16.2263V17.2533ZM32.2402 14.3924C32.162 13.385 31.8979 12.5439 31.448 11.869C30.5971 10.6268 29.3745 10.0057 27.7802 10.0057C26.3522 10.0057 25.1785 10.5828 24.2591 11.737C23.6918 12.4509 23.3397 13.3361 23.2028 14.3924H32.2402ZM43.8088 12.94H43.9261C45.227 9.05701 47.2271 7.11553 49.9266 7.11553C50.7091 7.11553 51.4622 7.26713 52.186 7.57033L51.1737 11.2675C50.626 11.0816 50.0636 10.9887 49.4865 10.9887C47.99 10.9887 46.743 11.7418 45.7454 13.2481C45.0803 14.2359 44.6157 15.5074 44.3516 17.0626V25.3518H40.4491V7.62902H44.1462L43.8088 12.94ZM52.3844 7.62902H56.683L60.1601 17.2533C60.5709 18.3683 60.9328 19.5763 61.2458 20.8771H61.3631C61.6565 19.6447 62.0184 18.4368 62.4488 17.2533L65.9405 7.62902H70.2392L62.8449 25.6599H59.7786L52.3844 7.62902ZM72.6822 0H77.0102V4.01991H72.6822V0ZM72.8583 7.62902H76.8195V25.3518H72.8583V7.62902ZM98.115 17.2533H84.8963C84.9648 18.8085 85.4538 20.0702 86.3634 21.0385C87.4589 22.1828 88.8526 22.755 90.5447 22.755C92.54 22.755 94.3054 21.8209 95.841 19.9528L98.1884 22.3295C96.2616 24.7552 93.5914 25.968 90.1779 25.968C87.3806 25.968 85.1261 25.0731 83.4145 23.2832C81.7811 21.5618 80.9644 19.3415 80.9644 16.6225C80.9644 14.412 81.4975 12.4901 82.5636 10.8567C83.5123 9.40912 84.7789 8.35769 86.3634 7.70237C87.4491 7.25246 88.6081 7.0275 89.8405 7.0275C91.8064 7.0275 93.4838 7.57522 94.8727 8.67067C96.3105 9.78568 97.2788 11.3457 97.7776 13.3508C98.0026 14.2604 98.115 15.2189 98.115 16.2263V17.2533ZM94.1832 14.3924C94.1049 13.385 93.8408 12.5439 93.3909 11.869C92.54 10.6268 91.3174 10.0057 89.7231 10.0057C88.2951 10.0057 87.1214 10.5828 86.202 11.737C85.6347 12.4509 85.2826 13.3361 85.1457 14.3924H94.1832ZM118.075 22.623C116.11 24.8432 113.474 25.9533 110.168 25.9533C106.881 25.9533 104.417 24.8236 102.773 22.5643C101.619 20.97 101.042 18.9894 101.042 16.6225C101.042 14.1284 101.732 12.0059 103.111 10.2552C104.813 8.12295 107.087 7.05684 109.933 7.05684C112.857 7.05684 115.322 7.94689 117.327 9.727L115.405 12.4412C113.86 10.9349 112.153 10.1818 110.285 10.1818C108.583 10.1818 107.253 10.8616 106.295 12.2211C105.492 13.3752 105.091 14.8277 105.091 16.5784C105.091 18.3879 105.507 19.8403 106.339 20.9358C107.287 22.1584 108.642 22.7697 110.402 22.7697C112.535 22.7697 114.29 21.8894 115.669 20.1289L118.075 22.623ZM137.508 17.2533H124.289C124.357 18.8085 124.847 20.0702 125.756 21.0385C126.852 22.1828 128.245 22.755 129.937 22.755C131.933 22.755 133.698 21.8209 135.234 19.9528L137.581 22.3295C135.654 24.7552 132.984 25.968 129.571 25.968C126.773 25.968 124.519 25.0731 122.807 23.2832C121.174 21.5618 120.357 19.3415 120.357 16.6225C120.357 14.412 120.89 12.4901 121.956 10.8567C122.905 9.40912 124.172 8.35769 125.756 7.70237C126.842 7.25246 128.001 7.0275 129.233 7.0275C131.199 7.0275 132.877 7.57522 134.265 8.67067C135.703 9.78568 136.672 11.3457 137.17 13.3508C137.395 14.2604 137.508 15.2189 137.508 16.2263V17.2533ZM133.576 14.3924C133.498 13.385 133.234 12.5439 132.784 11.869C131.933 10.6268 130.71 10.0057 129.116 10.0057C127.688 10.0057 126.514 10.5828 125.595 11.737C125.027 12.4509 124.675 13.3361 124.538 14.3924H133.576ZM141.961 20.4223C143.848 21.8307 145.966 22.5349 148.313 22.5349C150.446 22.5349 151.512 21.8992 151.512 20.6277C151.512 19.6594 150.299 18.7693 147.873 17.9575L146.347 17.4587C144.548 16.8523 143.311 16.2997 142.636 15.8009C141.54 14.9793 140.992 13.8105 140.992 12.2945C140.992 10.6122 141.731 9.2673 143.208 8.25988C144.382 7.45785 145.858 7.05684 147.639 7.05684C150.338 7.05684 152.764 7.72683 154.915 9.06679L153.052 12.0744C151.468 10.8713 149.751 10.2698 147.903 10.2698C147.14 10.2698 146.514 10.4068 146.025 10.6806C145.418 11.0132 145.115 11.4973 145.115 12.1331C145.115 12.6221 145.379 13.0427 145.907 13.3948C146.328 13.6882 147.096 14.0012 148.211 14.3338L149.839 14.8032C153.761 15.9671 155.722 17.8548 155.722 20.4663C155.722 21.7769 155.243 22.9457 154.285 23.9727C153.072 25.2736 150.969 25.924 147.976 25.924C145.061 25.924 142.435 25.0731 140.098 23.3712L141.961 20.4223ZM1.92682 80.0881H3.74604V87.5019C4.28725 86.7716 4.91974 86.2043 5.64352 85.8C6.40642 85.3827 7.1791 85.1741 7.96156 85.1741C9.46781 85.1741 10.573 85.6794 11.2773 86.6901C11.7989 87.4334 12.0597 88.4506 12.0597 89.7417V97.2142H10.2209V89.9667C10.2209 88.9625 10.0579 88.2126 9.73189 87.7171C9.31457 87.0781 8.63644 86.7586 7.69748 86.7586C7.05847 86.7586 6.42924 86.9444 5.80979 87.3161C4.91648 87.8573 4.22856 88.6528 3.74604 89.7026V97.2142H1.92682V80.0881ZM15.7522 80.0881H17.5714V87.2574C17.8909 86.7423 18.2952 86.3152 18.7842 85.9761C19.6188 85.4023 20.5382 85.1154 21.5424 85.1154C22.527 85.1154 23.4399 85.3697 24.281 85.8783C25.3895 86.5434 26.1687 87.5345 26.6186 88.8516C26.8794 89.6015 27.0099 90.4231 27.0099 91.3164C27.0099 92.9987 26.5828 94.3974 25.7286 95.5124C24.6918 96.8621 23.2801 97.537 21.4935 97.537C20.2807 97.537 19.2211 97.1718 18.3147 96.4415C18.0148 96.2068 17.7344 95.9101 17.4736 95.5515L17.2486 97.2729H15.7522V80.0881ZM17.5714 93.6149C17.9365 94.293 18.3799 94.8277 18.9016 95.2189C19.6123 95.7471 20.385 96.0112 21.2196 96.0112C22.4976 96.0112 23.4985 95.4928 24.2223 94.456C24.7961 93.641 25.083 92.6075 25.083 91.3555C25.083 90.4166 24.9102 89.5852 24.5647 88.8614C24.2451 88.1833 23.7952 87.6486 23.2149 87.2574C22.6085 86.8466 21.9369 86.6412 21.2001 86.6412C19.7655 86.6412 18.556 87.5149 17.5714 89.2624V93.6149ZM29.7731 80.0881H31.5923V87.5019C32.1336 86.7716 32.766 86.2043 33.4898 85.8C34.2527 85.3827 35.0254 85.1741 35.8079 85.1741C37.3141 85.1741 38.4193 85.6794 39.1236 86.6901C39.6452 87.4334 39.906 88.4506 39.906 89.7417V97.2142H38.0672V89.9667C38.0672 88.9625 37.9042 88.2126 37.5782 87.7171C37.1609 87.0781 36.4827 86.7586 35.5438 86.7586C34.9048 86.7586 34.2755 86.9444 33.6561 87.3161C32.7628 87.8573 32.0749 88.6528 31.5923 89.7026V97.2142H29.7731V80.0881ZM44.8993 80.6945H47.0804V82.8756H44.8993V80.6945ZM45.0851 85.399H46.9044V94.1724C46.9044 95.2678 46.8131 96.096 46.6305 96.6567C46.1545 98.1564 44.7102 98.9715 42.2976 99.1019L41.6814 97.5566C43.0768 97.5044 44.0321 97.1653 44.5472 96.5393C44.9058 96.1025 45.0851 95.307 45.0851 94.1528V85.399ZM51.0565 94.4071C52.2693 95.4113 53.6354 95.9134 55.1547 95.9134C56.9087 95.9134 57.7857 95.3331 57.7857 94.1724C57.7857 93.6377 57.4858 93.1813 56.8859 92.8031C56.5012 92.5618 55.9013 92.2977 55.0862 92.0108L54.069 91.649C52.9409 91.2512 52.1226 90.8437 51.614 90.4264C50.9881 89.9112 50.6751 89.2168 50.6751 88.343C50.6751 87.2998 51.1217 86.4717 52.015 85.8587C52.7519 85.3501 53.6745 85.0958 54.783 85.0958C56.4001 85.0958 57.89 85.5653 59.2528 86.5043L58.3139 87.9029C57.2249 87.0748 56.0806 86.6607 54.8808 86.6607C54.3461 86.6607 53.8929 86.7586 53.5213 86.9542C52.9279 87.2541 52.6312 87.7008 52.6312 88.2941C52.6312 88.7636 52.8399 89.132 53.2572 89.3994C53.518 89.5689 54.1081 89.8232 55.0275 90.1623L56.2697 90.622C57.3977 91.0458 58.2356 91.4957 58.7833 91.9717C59.455 92.552 59.7908 93.2726 59.7908 94.1333C59.7908 95.2548 59.3017 96.1416 58.3236 96.7936C57.5738 97.2892 56.4718 97.537 55.0177 97.537C53.1594 97.537 51.513 96.9567 50.0784 95.796L51.0565 94.4071ZM62.6225 80.0881H64.4417V87.5019C64.9829 86.7716 65.6154 86.2043 66.3392 85.8C67.1021 85.3827 67.8748 85.1741 68.6572 85.1741C70.1635 85.1741 71.2687 85.6794 71.9729 86.6901C72.4946 87.4334 72.7554 88.4506 72.7554 89.7417V97.2142H70.9166V89.9667C70.9166 88.9625 70.7536 88.2126 70.4276 87.7171C70.0103 87.0781 69.3321 86.7586 68.3932 86.7586C67.7542 86.7586 67.1249 86.9444 66.5055 87.3161C65.6122 87.8573 64.9242 88.6528 64.4417 89.7026V97.2142H62.6225V80.0881ZM76.4478 80.0881H78.2671V87.2574C78.5866 86.7423 78.9909 86.3152 79.4799 85.9761C80.3145 85.4023 81.2339 85.1154 82.2381 85.1154C83.2227 85.1154 84.1355 85.3697 84.9767 85.8783C86.0852 86.5434 86.8644 87.5345 87.3143 88.8516C87.5751 89.6015 87.7055 90.4231 87.7055 91.3164C87.7055 92.9987 87.2784 94.3974 86.4243 95.5124C85.3875 96.8621 83.9758 97.537 82.1892 97.537C80.9764 97.537 79.9168 97.1718 79.0104 96.4415C78.7105 96.2068 78.4301 95.9101 78.1693 95.5515L77.9443 97.2729H76.4478V80.0881ZM78.2671 93.6149C78.6322 94.293 79.0756 94.8277 79.5973 95.2189C80.308 95.7471 81.0807 96.0112 81.9153 96.0112C83.1933 96.0112 84.1942 95.4928 84.918 94.456C85.4918 93.641 85.7787 92.6075 85.7787 91.3555C85.7787 90.4166 85.6059 89.5852 85.2603 88.8614C84.9408 88.1833 84.4909 87.6486 83.9106 87.2574C83.3042 86.8466 82.6326 86.6412 81.8957 86.6412C80.4612 86.6412 79.2517 87.5149 78.2671 89.2624V93.6149ZM90.5177 94.4071C91.7305 95.4113 93.0966 95.9134 94.6159 95.9134C96.3699 95.9134 97.2469 95.3331 97.2469 94.1724C97.2469 93.6377 96.9469 93.1813 96.3471 92.8031C95.9623 92.5618 95.3625 92.2977 94.5474 92.0108L93.5302 91.649C92.4021 91.2512 91.5838 90.8437 91.0752 90.4264C90.4492 89.9112 90.1363 89.2168 90.1363 88.343C90.1363 87.2998 90.5829 86.4717 91.4762 85.8587C92.213 85.3501 93.1357 85.0958 94.2442 85.0958C95.8613 85.0958 97.3512 85.5653 98.714 86.5043L97.7751 87.9029C96.6861 87.0748 95.5418 86.6607 94.342 86.6607C93.8073 86.6607 93.3541 86.7586 92.9825 86.9542C92.3891 87.2541 92.0924 87.7008 92.0924 88.2941C92.0924 88.7636 92.3011 89.132 92.7184 89.3994C92.9792 89.5689 93.5693 89.8232 94.4887 90.1623L95.7309 90.622C96.8589 91.0458 97.6968 91.4957 98.2445 91.9717C98.9161 92.552 99.252 93.2726 99.252 94.1333C99.252 95.2548 98.7629 96.1416 97.7848 96.7936C97.035 97.2892 95.933 97.537 94.4789 97.537C92.6206 97.537 90.9741 96.9567 89.5396 95.796L90.5177 94.4071ZM109.537 89.7417V89.3602C109.537 88.4213 109.279 87.7203 108.764 87.2574C108.294 86.8335 107.571 86.6216 106.593 86.6216C105.158 86.6216 103.841 87.0813 102.641 88.0007L101.839 86.6999C103.235 85.6435 104.829 85.1154 106.622 85.1154C108.252 85.1154 109.481 85.5555 110.309 86.4358C110.994 87.1661 111.336 88.1703 111.336 89.4483V93.6931C111.336 95.1929 111.571 96.3666 112.041 97.2142H110.28C110.026 96.673 109.837 95.9786 109.713 95.1309H109.654C109.282 95.796 108.735 96.3633 108.011 96.8328C107.274 97.3153 106.364 97.5566 105.282 97.5566C104.154 97.5566 103.218 97.224 102.475 96.5589C101.692 95.8547 101.301 94.9581 101.301 93.8692C101.301 92.5651 101.872 91.5479 103.013 90.8176C104.141 90.1003 105.859 89.7417 108.167 89.7417H109.537ZM109.537 91.1306H108.275C104.884 91.1306 103.189 92.0369 103.189 93.8496C103.189 94.4365 103.371 94.9255 103.737 95.3167C104.18 95.7797 104.79 96.0112 105.566 96.0112C106.57 96.0112 107.45 95.6917 108.206 95.0527C109.093 94.3093 109.537 93.4291 109.537 92.4119V91.1306ZM114.911 80.0881H116.731V87.5019C117.272 86.7716 117.904 86.2043 118.628 85.8C119.391 85.3827 120.164 85.1741 120.946 85.1741C122.452 85.1741 123.558 85.6794 124.262 86.6901C124.783 87.4334 125.044 88.4506 125.044 89.7417V97.2142H123.206V89.9667C123.206 88.9625 123.042 88.2126 122.716 87.7171C122.299 87.0781 121.621 86.7586 120.682 86.7586C120.043 86.7586 119.414 86.9444 118.794 87.3161C117.901 87.8573 117.213 88.6528 116.731 89.7026V97.2142H114.911V80.0881ZM128.786 94.4071C129.998 95.4113 131.365 95.9134 132.884 95.9134C134.638 95.9134 135.515 95.3331 135.515 94.1724C135.515 93.6377 135.215 93.1813 134.615 92.8031C134.23 92.5618 133.63 92.2977 132.815 92.0108L131.798 91.649C130.67 91.2512 129.852 90.8437 129.343 90.4264C128.717 89.9112 128.404 89.2168 128.404 88.343C128.404 87.2998 128.851 86.4717 129.744 85.8587C130.481 85.3501 131.404 85.0958 132.512 85.0958C134.129 85.0958 135.619 85.5653 136.982 86.5043L136.043 87.9029C134.954 87.0748 133.81 86.6607 132.61 86.6607C132.075 86.6607 131.622 86.7586 131.25 86.9542C130.657 87.2541 130.36 87.7008 130.36 88.2941C130.36 88.7636 130.569 89.132 130.986 89.3994C131.247 89.5689 131.837 89.8232 132.757 90.1623L133.999 90.622C135.127 91.0458 135.965 91.4957 136.512 91.9717C137.184 92.552 137.52 93.2726 137.52 94.1333C137.52 95.2548 137.031 96.1416 136.053 96.7936C135.303 97.2892 134.201 97.537 132.747 97.537C130.889 97.537 129.242 96.9567 127.808 95.796L128.786 94.4071ZM147.805 89.7417V89.3602C147.805 88.4213 147.547 87.7203 147.032 87.2574C146.562 86.8335 145.839 86.6216 144.861 86.6216C143.426 86.6216 142.109 87.0813 140.909 88.0007L140.107 86.6999C141.502 85.6435 143.097 85.1154 144.89 85.1154C146.52 85.1154 147.749 85.5555 148.577 86.4358C149.262 87.1661 149.604 88.1703 149.604 89.4483V93.6931C149.604 95.1929 149.839 96.3666 150.308 97.2142H148.548C148.294 96.673 148.105 95.9786 147.981 95.1309H147.922C147.55 95.796 147.003 96.3633 146.279 96.8328C145.542 97.3153 144.632 97.5566 143.55 97.5566C142.422 97.5566 141.486 97.224 140.743 96.5589C139.96 95.8547 139.569 94.9581 139.569 93.8692C139.569 92.5651 140.14 91.5479 141.281 90.8176C142.409 90.1003 144.127 89.7417 146.435 89.7417H147.805ZM147.805 91.1306H146.543C143.152 91.1306 141.457 92.0369 141.457 93.8496C141.457 94.4365 141.639 94.9255 142.005 95.3167C142.448 95.7797 143.058 96.0112 143.834 96.0112C144.838 96.0112 145.718 95.6917 146.474 95.0527C147.361 94.3093 147.805 93.4291 147.805 92.4119V91.1306ZM153.179 80.0881H154.999V87.2574C155.318 86.7423 155.722 86.3152 156.211 85.9761C157.046 85.4023 157.965 85.1154 158.97 85.1154C159.954 85.1154 160.867 85.3697 161.708 85.8783C162.817 86.5434 163.596 87.5345 164.046 88.8516C164.307 89.6015 164.437 90.4231 164.437 91.3164C164.437 92.9987 164.01 94.3974 163.156 95.5124C162.119 96.8621 160.707 97.537 158.921 97.537C157.708 97.537 156.648 97.1718 155.742 96.4415C155.442 96.2068 155.162 95.9101 154.901 95.5515L154.676 97.2729H153.179V80.0881ZM154.999 93.6149C155.364 94.293 155.807 94.8277 156.329 95.2189C157.039 95.7471 157.812 96.0112 158.647 96.0112C159.925 96.0112 160.926 95.4928 161.649 94.456C162.223 93.641 162.51 92.6075 162.51 91.3555C162.51 90.4166 162.337 89.5852 161.992 88.8614C161.672 88.1833 161.222 87.6486 160.642 87.2574C160.036 86.8466 159.364 86.6412 158.627 86.6412C157.193 86.6412 155.983 87.5149 154.999 89.2624V93.6149ZM167.2 80.0881H169.02V87.5019C169.561 86.7716 170.193 86.2043 170.917 85.8C171.68 85.3827 172.453 85.1741 173.235 85.1741C174.741 85.1741 175.847 85.6794 176.551 86.6901C177.072 87.4334 177.333 88.4506 177.333 89.7417V97.2142H175.494V89.9667C175.494 88.9625 175.331 88.2126 175.005 87.7171C174.588 87.0781 173.91 86.7586 172.971 86.7586C172.332 86.7586 171.703 86.9444 171.083 87.3161C170.19 87.8573 169.502 88.6528 169.02 89.7026V97.2142H167.2V80.0881ZM181.075 94.4071C182.287 95.4113 183.653 95.9134 185.173 95.9134C186.927 95.9134 187.804 95.3331 187.804 94.1724C187.804 93.6377 187.504 93.1813 186.904 92.8031C186.519 92.5618 185.919 92.2977 185.104 92.0108L184.087 91.649C182.959 91.2512 182.141 90.8437 181.632 90.4264C181.006 89.9112 180.693 89.2168 180.693 88.343C180.693 87.2998 181.14 86.4717 182.033 85.8587C182.77 85.3501 183.693 85.0958 184.801 85.0958C186.418 85.0958 187.908 85.5653 189.271 86.5043L188.332 87.9029C187.243 87.0748 186.099 86.6607 184.899 86.6607C184.364 86.6607 183.911 86.7586 183.539 86.9542C182.946 87.2541 182.649 87.7008 182.649 88.2941C182.649 88.7636 182.858 89.132 183.275 89.3994C183.536 89.5689 184.126 89.8232 185.046 90.1623L186.288 90.622C187.416 91.0458 188.254 91.4957 188.801 91.9717C189.473 92.552 189.809 93.2726 189.809 94.1333C189.809 95.2548 189.32 96.1416 188.342 96.7936C187.592 97.2892 186.49 97.537 185.036 97.537C183.177 97.537 181.531 96.9567 180.096 95.796L181.075 94.4071ZM200.093 89.7417V89.3602C200.093 88.4213 199.836 87.7203 199.321 87.2574C198.851 86.8335 198.128 86.6216 197.149 86.6216C195.715 86.6216 194.398 87.0813 193.198 88.0007L192.396 86.6999C193.791 85.6435 195.386 85.1154 197.179 85.1154C198.809 85.1154 200.038 85.5555 200.866 86.4358C201.551 87.1661 201.893 88.1703 201.893 89.4483V93.6931C201.893 95.1929 202.128 96.3666 202.597 97.2142H200.837C200.583 96.673 200.393 95.9786 200.27 95.1309H200.211C199.839 95.796 199.291 96.3633 198.568 96.8328C197.831 97.3153 196.921 97.5566 195.839 97.5566C194.711 97.5566 193.775 97.224 193.032 96.5589C192.249 95.8547 191.858 94.9581 191.858 93.8692C191.858 92.5651 192.429 91.5479 193.57 90.8176C194.698 90.1003 196.416 89.7417 198.724 89.7417H200.093ZM200.093 91.1306H198.832C195.441 91.1306 193.746 92.0369 193.746 93.8496C193.746 94.4365 193.928 94.9255 194.293 95.3167C194.737 95.7797 195.347 96.0112 196.122 96.0112C197.127 96.0112 198.007 95.6917 198.763 95.0527C199.65 94.3093 200.093 93.4291 200.093 92.4119V91.1306ZM205.468 80.0881H207.287V87.2574C207.607 86.7423 208.011 86.3152 208.5 85.9761C209.335 85.4023 210.254 85.1154 211.258 85.1154C212.243 85.1154 213.156 85.3697 213.997 85.8783C215.106 86.5434 215.885 87.5345 216.335 88.8516C216.596 89.6015 216.726 90.4231 216.726 91.3164C216.726 92.9987 216.299 94.3974 215.445 95.5124C214.408 96.8621 212.996 97.537 211.21 97.537C209.997 97.537 208.937 97.1718 208.031 96.4415C207.731 96.2068 207.45 95.9101 207.19 95.5515L206.965 97.2729H205.468V80.0881ZM207.287 93.6149C207.653 94.293 208.096 94.8277 208.618 95.2189C209.328 95.7471 210.101 96.0112 210.936 96.0112C212.214 96.0112 213.215 95.4928 213.938 94.456C214.512 93.641 214.799 92.6075 214.799 91.3555C214.799 90.4166 214.626 89.5852 214.281 88.8614C213.961 88.1833 213.511 87.6486 212.931 87.2574C212.325 86.8466 211.653 86.6412 210.916 86.6412C209.482 86.6412 208.272 87.5149 207.287 89.2624V93.6149ZM219.489 80.0881H221.308V87.5019C221.85 86.7716 222.482 86.2043 223.206 85.8C223.969 85.3827 224.741 85.1741 225.524 85.1741C227.03 85.1741 228.135 85.6794 228.84 86.6901C229.361 87.4334 229.622 88.4506 229.622 89.7417V97.2142H227.783V89.9667C227.783 88.9625 227.62 88.2126 227.294 87.7171C226.877 87.0781 226.199 86.7586 225.26 86.7586C224.621 86.7586 223.992 86.9444 223.372 87.3161C222.479 87.8573 221.791 88.6528 221.308 89.7026V97.2142H219.489V80.0881ZM240.767 89.7417V89.3602C240.767 88.4213 240.51 87.7203 239.995 87.2574C239.525 86.8335 238.802 86.6216 237.823 86.6216C236.389 86.6216 235.072 87.0813 233.872 88.0007L233.07 86.6999C234.465 85.6435 236.06 85.1154 237.853 85.1154C239.483 85.1154 240.712 85.5555 241.54 86.4358C242.225 87.1661 242.567 88.1703 242.567 89.4483V93.6931C242.567 95.1929 242.802 96.3666 243.271 97.2142H241.511C241.257 96.673 241.067 95.9786 240.944 95.1309H240.885C240.513 95.796 239.965 96.3633 239.242 96.8328C238.505 97.3153 237.595 97.5566 236.513 97.5566C235.385 97.5566 234.449 97.224 233.706 96.5589C232.923 95.8547 232.532 94.9581 232.532 93.8692C232.532 92.5651 233.103 91.5479 234.244 90.8176C235.372 90.1003 237.09 89.7417 239.398 89.7417H240.767ZM240.767 91.1306H239.506C236.115 91.1306 234.42 92.0369 234.42 93.8496C234.42 94.4365 234.602 94.9255 234.967 95.3167C235.411 95.7797 236.021 96.0112 236.796 96.0112C237.801 96.0112 238.681 95.6917 239.437 95.0527C240.324 94.3093 240.767 93.4291 240.767 92.4119V91.1306ZM246.142 80.0881H247.961V87.2574C248.281 86.7423 248.685 86.3152 249.174 85.9761C250.009 85.4023 250.928 85.1154 251.932 85.1154C252.917 85.1154 253.83 85.3697 254.671 85.8783C255.78 86.5434 256.559 87.5345 257.009 88.8516C257.27 89.6015 257.4 90.4231 257.4 91.3164C257.4 92.9987 256.973 94.3974 256.119 95.5124C255.082 96.8621 253.67 97.537 251.884 97.537C250.671 97.537 249.611 97.1718 248.705 96.4415C248.405 96.2068 248.124 95.9101 247.864 95.5515L247.639 97.2729H246.142V80.0881ZM247.961 93.6149C248.327 94.293 248.77 94.8277 249.292 95.2189C250.002 95.7471 250.775 96.0112 251.61 96.0112C252.888 96.0112 253.889 95.4928 254.612 94.456C255.186 93.641 255.473 92.6075 255.473 91.3555C255.473 90.4166 255.3 89.5852 254.955 88.8614C254.635 88.1833 254.185 87.6486 253.605 87.2574C252.999 86.8466 252.327 86.6412 251.59 86.6412C250.156 86.6412 248.946 87.5149 247.961 89.2624V93.6149ZM260.163 80.0881H261.982V87.5019C262.524 86.7716 263.156 86.2043 263.88 85.8C264.643 85.3827 265.415 85.1741 266.198 85.1741C267.704 85.1741 268.809 85.6794 269.514 86.6901C270.035 87.4334 270.296 88.4506 270.296 89.7417V97.2142H268.457V89.9667C268.457 88.9625 268.294 88.2126 267.968 87.7171C267.551 87.0781 266.873 86.7586 265.934 86.7586C265.295 86.7586 264.666 86.9444 264.046 87.3161C263.153 87.8573 262.465 88.6528 261.982 89.7026V97.2142H260.163V80.0881ZM1.92682 116.144H3.74604V123.558C4.28725 122.828 4.91974 122.26 5.64352 121.856C6.40642 121.439 7.1791 121.23 7.96156 121.23C9.46781 121.23 10.573 121.735 11.2773 122.746C11.7989 123.489 12.0597 124.507 12.0597 125.798V133.27H10.2209V126.023C10.2209 125.018 10.0579 124.269 9.73189 123.773C9.31457 123.134 8.63644 122.814 7.69748 122.814C7.05847 122.814 6.42924 123 5.80979 123.372C4.91648 123.913 4.22856 124.709 3.74604 125.758V133.27H1.92682V116.144ZM23.2051 125.798V125.416C23.2051 124.477 22.9476 123.776 22.4324 123.313C21.963 122.889 21.2392 122.678 20.2611 122.678C18.8266 122.678 17.5094 123.137 16.3097 124.057L15.5076 122.756C16.903 121.699 18.4973 121.171 20.2904 121.171C21.9206 121.171 23.1497 121.611 23.9778 122.492C24.6625 123.222 25.0048 124.226 25.0048 125.504V129.749C25.0048 131.249 25.2395 132.422 25.709 133.27H23.9485C23.6942 132.729 23.5051 132.034 23.3812 131.187H23.3225C22.9508 131.852 22.4031 132.419 21.6793 132.889C20.9425 133.371 20.0329 133.612 18.9505 133.612C17.8224 133.612 16.8867 133.28 16.1434 132.615C15.3609 131.911 14.9697 131.014 14.9697 129.925C14.9697 128.621 15.5402 127.604 16.6813 126.873C17.8094 126.156 19.5275 125.798 21.8358 125.798H23.2051ZM23.2051 127.186H21.9434C18.5527 127.186 16.8574 128.093 16.8574 129.906C16.8574 130.492 17.04 130.981 17.4051 131.373C17.8485 131.836 18.4582 132.067 19.2341 132.067C20.2383 132.067 21.1186 131.748 21.8749 131.109C22.7617 130.365 23.2051 129.485 23.2051 128.468V127.186ZM28.5994 117.044H30.4187V124.076H39.3192V117.044H41.1384V133.27H39.3192V125.641H30.4187V133.27H28.5994V117.044ZM45.0656 117.044H50.0929C51.5209 117.044 52.6685 117.204 53.5358 117.523C54.2921 117.803 54.9018 118.217 55.3648 118.765C55.919 119.417 56.1961 120.2 56.1961 121.113C56.1961 122.221 55.8245 123.105 55.0811 123.763C54.5138 124.265 53.7509 124.611 52.7924 124.8V124.859C53.9465 125.08 54.8627 125.449 55.5408 125.964C56.4732 126.675 56.9395 127.61 56.9395 128.771C56.9395 130.499 56.1766 131.741 54.6508 132.497C53.601 133.013 52.2871 133.27 50.7091 133.27H45.0656V117.044ZM46.8848 118.55V124.076H49.8288C50.9112 124.076 51.8469 123.91 52.6359 123.577C53.6857 123.134 54.2106 122.391 54.2106 121.347C54.2106 119.482 52.7957 118.55 49.9658 118.55H46.8848ZM46.8848 125.543V131.744H50.4744C51.7002 131.744 52.6587 131.565 53.3499 131.206C53.6238 131.069 53.8716 130.893 54.0933 130.678C54.641 130.137 54.9148 129.472 54.9148 128.683C54.9148 127.64 54.3965 126.844 53.3597 126.296C52.3947 125.794 51.2503 125.543 49.9266 125.543H46.8848ZM60.0646 117.044H61.8839V124.076H70.7844V117.044H72.6036V133.27H70.7844V125.641H61.8839V133.27H60.0646V117.044ZM76.5308 117.044H81.5581C82.9861 117.044 84.1337 117.204 85.0009 117.523C85.7573 117.803 86.367 118.217 86.83 118.765C87.3842 119.417 87.6613 120.2 87.6613 121.113C87.6613 122.221 87.2897 123.105 86.5463 123.763C85.979 124.265 85.2161 124.611 84.2576 124.8V124.859C85.4117 125.08 86.3279 125.449 87.006 125.964C87.9384 126.675 88.4047 127.61 88.4047 128.771C88.4047 130.499 87.6418 131.741 86.116 132.497C85.0662 133.013 83.7523 133.27 82.1743 133.27H76.5308V117.044ZM78.35 118.55V124.076H81.294C82.3764 124.076 83.3121 123.91 84.1011 123.577C85.1509 123.134 85.6758 122.391 85.6758 121.347C85.6758 119.482 84.2609 118.55 81.431 118.55H78.35ZM78.35 125.543V131.744H81.9396C83.1654 131.744 84.1239 131.565 84.8151 131.206C85.089 131.069 85.3368 130.893 85.5585 130.678C86.1062 130.137 86.38 129.472 86.38 128.683C86.38 127.64 85.8617 126.844 84.8249 126.296C83.8599 125.794 82.7155 125.543 81.3918 125.543H78.35ZM96.1366 117.044H97.9949V128.839C97.9949 130.424 97.6819 131.568 97.056 132.272C96.2735 133.153 95.1422 133.593 93.662 133.593C91.8624 133.593 90.5028 132.638 89.5834 130.727L90.7278 129.602C91.4125 131.154 92.371 131.93 93.6034 131.93C94.5749 131.93 95.2726 131.594 95.6964 130.923C95.9899 130.453 96.1366 129.72 96.1366 128.722V117.044ZM103.428 116.75H105.609V118.931H103.428V116.75ZM103.614 121.455H105.433V130.228C105.433 131.324 105.342 132.152 105.16 132.713C104.684 134.212 103.239 135.027 100.827 135.158L100.21 133.612C101.606 133.56 102.561 133.221 103.076 132.595C103.435 132.158 103.614 131.363 103.614 130.209V121.455ZM109.537 116.144H111.356V123.558C111.897 122.828 112.53 122.26 113.253 121.856C114.016 121.439 114.789 121.23 115.571 121.23C117.078 121.23 118.183 121.735 118.887 122.746C119.409 123.489 119.67 124.507 119.67 125.798V133.27H117.831V126.023C117.831 125.018 117.668 124.269 117.342 123.773C116.924 123.134 116.246 122.814 115.307 122.814C114.668 122.814 114.039 123 113.42 123.372C112.526 123.913 111.838 124.709 111.356 125.758V133.27H109.537V116.144ZM123.362 116.144H125.181V123.313C125.501 122.798 125.905 122.371 126.394 122.032C127.229 121.458 128.148 121.171 129.152 121.171C130.137 121.171 131.05 121.426 131.891 121.934C132.999 122.599 133.779 123.59 134.228 124.908C134.489 125.657 134.62 126.479 134.62 127.372C134.62 129.055 134.193 130.453 133.338 131.568C132.302 132.918 130.89 133.593 129.103 133.593C127.89 133.593 126.831 133.228 125.925 132.497C125.625 132.263 125.344 131.966 125.083 131.607L124.858 133.329H123.362V116.144ZM125.181 129.671C125.546 130.349 125.99 130.884 126.511 131.275C127.222 131.803 127.995 132.067 128.829 132.067C130.107 132.067 131.108 131.549 131.832 130.512C132.406 129.697 132.693 128.663 132.693 127.411C132.693 126.472 132.52 125.641 132.174 124.917C131.855 124.239 131.405 123.705 130.825 123.313C130.218 122.902 129.547 122.697 128.81 122.697C127.375 122.697 126.166 123.571 125.181 125.318V129.671ZM144.836 125.798V125.416C144.836 124.477 144.578 123.776 144.063 123.313C143.594 122.889 142.87 122.678 141.892 122.678C140.457 122.678 139.14 123.137 137.94 124.057L137.138 122.756C138.534 121.699 140.128 121.171 141.921 121.171C143.551 121.171 144.78 121.611 145.609 122.492C146.293 123.222 146.636 124.226 146.636 125.504V129.749C146.636 131.249 146.87 132.422 147.34 133.27H145.579C145.325 132.729 145.136 132.034 145.012 131.187H144.953C144.582 131.852 144.034 132.419 143.31 132.889C142.573 133.371 141.664 133.612 140.581 133.612C139.453 133.612 138.518 133.28 137.774 132.615C136.992 131.911 136.6 131.014 136.6 129.925C136.6 128.621 137.171 127.604 138.312 126.873C139.44 126.156 141.158 125.798 143.467 125.798H144.836ZM144.836 127.186H143.574C140.184 127.186 138.488 128.093 138.488 129.906C138.488 130.492 138.671 130.981 139.036 131.373C139.479 131.836 140.089 132.067 140.865 132.067C141.869 132.067 142.749 131.748 143.506 131.109C144.393 130.365 144.836 129.485 144.836 128.468V127.186ZM150.211 116.144H152.03V123.558C152.571 122.828 153.204 122.26 153.927 121.856C154.69 121.439 155.463 121.23 156.245 121.23C157.752 121.23 158.857 121.735 159.561 122.746C160.083 123.489 160.344 124.507 160.344 125.798V133.27H158.505V126.023C158.505 125.018 158.342 124.269 158.016 123.773C157.598 123.134 156.92 122.814 155.981 122.814C155.342 122.814 154.713 123 154.094 123.372C153.2 123.913 152.512 124.709 152.03 125.758V133.27H150.211V116.144ZM164.036 116.144H165.855V123.558C166.396 122.828 167.029 122.26 167.753 121.856C168.516 121.439 169.288 121.23 170.071 121.23C171.577 121.23 172.682 121.735 173.386 122.746C173.908 123.489 174.169 124.507 174.169 125.798V133.27H172.33V126.023C172.33 125.018 172.167 124.269 171.841 123.773C171.424 123.134 170.746 122.814 169.807 122.814C169.168 122.814 168.538 123 167.919 123.372C167.026 123.913 166.338 124.709 165.855 125.758V133.27H164.036V116.144ZM177.91 130.463C179.123 131.467 180.489 131.969 182.008 131.969C183.762 131.969 184.639 131.389 184.639 130.228C184.639 129.694 184.339 129.237 183.74 128.859C183.355 128.618 182.755 128.354 181.94 128.067L180.923 127.705C179.795 127.307 178.976 126.9 178.468 126.482C177.842 125.967 177.529 125.273 177.529 124.399C177.529 123.356 177.975 122.528 178.869 121.915C179.606 121.406 180.528 121.152 181.637 121.152C183.254 121.152 184.744 121.621 186.107 122.56L185.168 123.959C184.079 123.131 182.934 122.717 181.735 122.717C181.2 122.717 180.747 122.814 180.375 123.01C179.782 123.31 179.485 123.757 179.485 124.35C179.485 124.82 179.694 125.188 180.111 125.455C180.372 125.625 180.962 125.879 181.881 126.218L183.123 126.678C184.251 127.102 185.089 127.552 185.637 128.028C186.309 128.608 186.644 129.328 186.644 130.189C186.644 131.311 186.155 132.198 185.177 132.85C184.428 133.345 183.326 133.593 181.871 133.593C180.013 133.593 178.367 133.013 176.932 131.852L177.91 130.463ZM189.476 116.144H191.295V123.313C191.615 122.798 192.019 122.371 192.508 122.032C193.343 121.458 194.262 121.171 195.266 121.171C196.251 121.171 197.164 121.426 198.005 121.934C199.114 122.599 199.893 123.59 200.343 124.908C200.604 125.657 200.734 126.479 200.734 127.372C200.734 129.055 200.307 130.453 199.453 131.568C198.416 132.918 197.004 133.593 195.218 133.593C194.005 133.593 192.945 133.228 192.039 132.497C191.739 132.263 191.458 131.966 191.198 131.607L190.973 133.329H189.476V116.144ZM191.295 129.671C191.661 130.349 192.104 130.884 192.626 131.275C193.336 131.803 194.109 132.067 194.944 132.067C196.222 132.067 197.223 131.549 197.946 130.512C198.52 129.697 198.807 128.663 198.807 127.411C198.807 126.472 198.634 125.641 198.289 124.917C197.969 124.239 197.519 123.705 196.939 123.313C196.333 122.902 195.661 122.697 194.924 122.697C193.49 122.697 192.28 123.571 191.295 125.318V129.671ZM203.546 130.463C204.759 131.467 206.125 131.969 207.644 131.969C209.398 131.969 210.275 131.389 210.275 130.228C210.275 129.694 209.975 129.237 209.375 128.859C208.991 128.618 208.391 128.354 207.576 128.067L206.559 127.705C205.431 127.307 204.612 126.9 204.104 126.482C203.478 125.967 203.165 125.273 203.165 124.399C203.165 123.356 203.611 122.528 204.505 121.915C205.241 121.406 206.164 121.152 207.273 121.152C208.89 121.152 210.38 121.621 211.742 122.56L210.803 123.959C209.715 123.131 208.57 122.717 207.37 122.717C206.836 122.717 206.383 122.814 206.011 123.01C205.417 123.31 205.121 123.757 205.121 124.35C205.121 124.82 205.329 125.188 205.747 125.455C206.008 125.625 206.598 125.879 207.517 126.218L208.759 126.678C209.887 127.102 210.725 127.552 211.273 128.028C211.945 128.608 212.28 129.328 212.28 130.189C212.28 131.311 211.791 132.198 210.813 132.85C210.063 133.345 208.961 133.593 207.507 133.593C205.649 133.593 204.003 133.013 202.568 131.852L203.546 130.463ZM216.413 116.75H218.594V118.931H216.413V116.75ZM216.599 121.455H218.418V130.228C218.418 131.324 218.327 132.152 218.144 132.713C217.668 134.212 216.224 135.027 213.811 135.158L213.195 133.612C214.59 133.56 215.546 133.221 216.061 132.595C216.419 132.158 216.599 131.363 216.599 130.209V121.455ZM222.57 130.463C223.783 131.467 225.149 131.969 226.668 131.969C228.422 131.969 229.299 131.389 229.299 130.228C229.299 129.694 228.999 129.237 228.399 128.859C228.015 128.618 227.415 128.354 226.6 128.067L225.583 127.705C224.455 127.307 223.636 126.9 223.128 126.482C222.502 125.967 222.189 125.273 222.189 124.399C222.189 123.356 222.635 122.528 223.529 121.915C224.265 121.406 225.188 121.152 226.297 121.152C227.914 121.152 229.404 121.621 230.766 122.56L229.827 123.959C228.739 123.131 227.594 122.717 226.394 122.717C225.86 122.717 225.407 122.814 225.035 123.01C224.442 123.31 224.145 123.757 224.145 124.35C224.145 124.82 224.354 125.188 224.771 125.455C225.032 125.625 225.622 125.879 226.541 126.218L227.783 126.678C228.911 127.102 229.749 127.552 230.297 128.028C230.969 128.608 231.304 129.328 231.304 130.189C231.304 131.311 230.815 132.198 229.837 132.85C229.087 133.345 227.985 133.593 226.531 133.593C224.673 133.593 223.027 133.013 221.592 131.852L222.57 130.463ZM234.136 116.144H235.955V123.313C236.275 122.798 236.679 122.371 237.168 122.032C238.003 121.458 238.922 121.171 239.926 121.171C240.911 121.171 241.824 121.426 242.665 121.934C243.773 122.599 244.553 123.59 245.003 124.908C245.263 125.657 245.394 126.479 245.394 127.372C245.394 129.055 244.967 130.453 244.113 131.568C243.076 132.918 241.664 133.593 239.877 133.593C238.665 133.593 237.605 133.228 236.699 132.497C236.399 132.263 236.118 131.966 235.858 131.607L235.633 133.329H234.136V116.144ZM235.955 129.671C236.32 130.349 236.764 130.884 237.286 131.275C237.996 131.803 238.769 132.067 239.604 132.067C240.882 132.067 241.882 131.549 242.606 130.512C243.18 129.697 243.467 128.663 243.467 127.411C243.467 126.472 243.294 125.641 242.949 124.917C242.629 124.239 242.179 123.705 241.599 123.313C240.992 122.902 240.321 122.697 239.584 122.697C238.149 122.697 236.94 123.571 235.955 125.318V129.671ZM248.157 116.144H249.976V123.558C250.518 122.828 251.15 122.26 251.874 121.856C252.637 121.439 253.409 121.23 254.192 121.23C255.698 121.23 256.803 121.735 257.508 122.746C258.029 123.489 258.29 124.507 258.29 125.798V133.27H256.451V126.023C256.451 125.018 256.288 124.269 255.962 123.773C255.545 123.134 254.867 122.814 253.928 122.814C253.289 122.814 252.659 123 252.04 123.372C251.147 123.913 250.459 124.709 249.976 125.758V133.27H248.157V116.144ZM261.982 116.144H263.802V123.313C264.121 122.798 264.525 122.371 265.014 122.032C265.849 121.458 266.768 121.171 267.773 121.171C268.757 121.171 269.67 121.426 270.511 121.934C271.62 122.599 272.399 123.59 272.849 124.908C273.11 125.657 273.24 126.479 273.24 127.372C273.24 129.055 272.813 130.453 271.959 131.568C270.922 132.918 269.51 133.593 267.724 133.593C266.511 133.593 265.451 133.228 264.545 132.497C264.245 132.263 263.965 131.966 263.704 131.607L263.479 133.329H261.982V116.144ZM263.802 129.671C264.167 130.349 264.61 130.884 265.132 131.275C265.843 131.803 266.615 132.067 267.45 132.067C268.728 132.067 269.729 131.549 270.453 130.512C271.026 129.697 271.313 128.663 271.313 127.411C271.313 126.472 271.14 125.641 270.795 124.917C270.475 124.239 270.025 123.705 269.445 123.313C268.839 122.902 268.167 122.697 267.43 122.697C265.996 122.697 264.786 123.571 263.802 125.318V129.671ZM276.052 130.463C277.265 131.467 278.631 131.969 280.15 131.969C281.904 131.969 282.781 131.389 282.781 130.228C282.781 129.694 282.482 129.237 281.882 128.859C281.497 128.618 280.897 128.354 280.082 128.067L279.065 127.705C277.937 127.307 277.118 126.9 276.61 126.482C275.984 125.967 275.671 125.273 275.671 124.399C275.671 123.356 276.117 122.528 277.011 121.915C277.748 121.406 278.67 121.152 279.779 121.152C281.396 121.152 282.886 121.621 284.249 122.56L283.31 123.959C282.221 123.131 281.076 122.717 279.877 122.717C279.342 122.717 278.889 122.814 278.517 123.01C277.924 123.31 277.627 123.757 277.627 124.35C277.627 124.82 277.836 125.188 278.253 125.455C278.514 125.625 279.104 125.879 280.023 126.218L281.265 126.678C282.393 127.102 283.231 127.552 283.779 128.028C284.451 128.608 284.787 129.328 284.787 130.189C284.787 131.311 284.297 132.198 283.319 132.85C282.57 133.345 281.468 133.593 280.013 133.593C278.155 133.593 276.509 133.013 275.074 131.852L276.052 130.463ZM287.618 116.144H289.437V123.558C289.979 122.828 290.611 122.26 291.335 121.856C292.098 121.439 292.871 121.23 293.653 121.23C295.159 121.23 296.264 121.735 296.969 122.746C297.49 123.489 297.751 124.507 297.751 125.798V133.27H295.912V126.023C295.912 125.018 295.749 124.269 295.423 123.773C295.006 123.134 294.328 122.814 293.389 122.814C292.75 122.814 292.121 123 291.501 123.372C290.608 123.913 289.92 124.709 289.437 125.758V133.27H287.618V116.144ZM1.92682 152.2H3.74604V159.369C4.06555 158.854 4.46982 158.427 4.95886 158.088C5.79349 157.514 6.71288 157.227 7.71704 157.227C8.70164 157.227 9.61452 157.482 10.4557 157.99C11.5642 158.655 12.3434 159.646 12.7933 160.963C13.0541 161.713 13.1845 162.535 13.1845 163.428C13.1845 165.111 12.7574 166.509 11.9032 167.624C10.8665 168.974 9.45477 169.649 7.66814 169.649C6.45532 169.649 5.39574 169.284 4.48938 168.553C4.18944 168.319 3.90906 168.022 3.64824 167.663L3.42328 169.385H1.92682V152.2ZM3.74604 165.727C4.11119 166.405 4.55459 166.94 5.07623 167.331C5.78697 167.859 6.55965 168.123 7.39428 168.123C8.6723 168.123 9.6732 167.605 10.397 166.568C10.9708 165.753 11.2577 164.719 11.2577 163.467C11.2577 162.528 11.0849 161.697 10.7393 160.973C10.4198 160.295 9.96989 159.76 9.38956 159.369C8.78315 158.958 8.11154 158.753 7.37472 158.753C5.9402 158.753 4.73064 159.627 3.74604 161.374V165.727ZM6.55313 189.156H8.41148V200.951C8.41148 202.536 8.0985 203.68 7.47252 204.384C6.69006 205.265 5.55875 205.705 4.07859 205.705C2.27892 205.705 0.919394 204.749 0 202.839L1.14435 201.714C1.82901 203.266 2.78753 204.042 4.01991 204.042C4.99146 204.042 5.68916 203.706 6.11299 203.035C6.40642 202.565 6.55313 201.832 6.55313 200.834V189.156ZM10.8129 189.156H12.8766L16.8378 199.65C17.3138 200.902 17.6953 202.073 17.9822 203.162H18.0604C18.3147 202.158 18.6962 200.987 19.2048 199.65L23.1758 189.156H25.2395L18.8038 205.597H17.2388L10.8129 189.156ZM31.7977 189.156H33.6561V200.951C33.6561 202.536 33.3431 203.68 32.7171 204.384C31.9347 205.265 30.8034 205.705 29.3232 205.705C27.5235 205.705 26.164 204.749 25.2446 202.839L26.389 201.714C27.0736 203.266 28.0321 204.042 29.2645 204.042C30.2361 204.042 30.9338 203.706 31.3576 203.035C31.651 202.565 31.7977 201.832 31.7977 200.834V189.156ZM42.5324 189.077H44.4201L50.846 205.382H48.8018L46.9826 200.599H39.9698L38.1506 205.382H36.1064L42.5324 189.077ZM46.4447 199.054L44.7428 194.564C44.1234 192.973 43.7158 191.774 43.5202 190.965H43.442C43.2464 191.728 42.8388 192.928 42.2194 194.564L40.5175 199.054H46.4447ZM53.0616 189.156H58.0889C59.5169 189.156 60.6645 189.315 61.5317 189.635C62.2881 189.915 62.8978 190.329 63.3608 190.877C63.915 191.529 64.1921 192.312 64.1921 193.224C64.1921 194.333 63.8204 195.216 63.0771 195.875C62.5098 196.377 61.7469 196.723 60.7884 196.912V196.97C61.9425 197.192 62.8587 197.561 63.5368 198.076C64.4692 198.786 64.9355 199.722 64.9355 200.883C64.9355 202.611 64.1726 203.853 62.6468 204.609C61.5969 205.124 60.2831 205.382 58.7051 205.382H53.0616V189.156ZM54.8808 190.662V196.188H57.8248C58.9072 196.188 59.8429 196.022 60.6319 195.689C61.6817 195.246 62.2066 194.502 62.2066 193.459C62.2066 191.594 60.7917 190.662 57.9618 190.662H54.8808ZM54.8808 197.655V203.856H58.4704C59.6962 203.856 60.6547 203.677 61.3459 203.318C61.6198 203.181 61.8676 203.005 62.0892 202.79C62.637 202.249 62.9108 201.584 62.9108 200.795C62.9108 199.751 62.3925 198.956 61.3557 198.408C60.3907 197.906 59.2463 197.655 57.9226 197.655H54.8808ZM68.2954 189.156H73.3227C74.7507 189.156 75.8983 189.315 76.7655 189.635C77.5219 189.915 78.1316 190.329 78.5945 190.877C79.1488 191.529 79.4259 192.312 79.4259 193.224C79.4259 194.333 79.0542 195.216 78.3109 195.875C77.7436 196.377 76.9807 196.723 76.0222 196.912V196.97C77.1763 197.192 78.0924 197.561 78.7706 198.076C79.703 198.786 80.1692 199.722 80.1692 200.883C80.1692 202.611 79.4063 203.853 77.8805 204.609C76.8307 205.124 75.5168 205.382 73.9389 205.382H68.2954V189.156ZM70.1146 190.662V196.188H73.0586C74.141 196.188 75.0767 196.022 75.8657 195.689C76.9155 195.246 77.4404 194.502 77.4404 193.459C77.4404 191.594 76.0254 190.662 73.1955 190.662H70.1146ZM70.1146 197.655V203.856H73.7041C74.93 203.856 75.8885 203.677 76.5797 203.318C76.8535 203.181 77.1013 203.005 77.323 202.79C77.8708 202.249 78.1446 201.584 78.1446 200.795C78.1446 199.751 77.6262 198.956 76.5895 198.408C75.6244 197.906 74.4801 197.655 73.1564 197.655H70.1146ZM95.1194 205.47L94.7966 203.387C94.5162 203.771 94.2195 204.094 93.9066 204.355C92.8372 205.242 91.5689 205.685 90.1018 205.685C87.8718 205.685 86.033 204.909 84.5855 203.357C83.1705 201.845 82.463 199.833 82.463 197.323C82.463 194.838 83.2031 192.791 84.6833 191.18C86.1178 189.615 87.9696 188.833 90.2388 188.833C91.6211 188.833 92.8242 189.058 93.8479 189.508C94.5064 189.801 95.2041 190.238 95.941 190.818L94.8944 192.197C94.2684 191.643 93.6555 191.236 93.0556 190.975C92.2862 190.642 91.3701 190.476 90.3072 190.476C88.5923 190.476 87.1937 191.076 86.1113 192.276C85.0158 193.489 84.4681 195.181 84.4681 197.352C84.4681 199.047 84.8267 200.452 85.544 201.567C86.0721 202.389 86.7666 203.015 87.6273 203.445C88.4163 203.843 89.2737 204.042 90.1996 204.042C91.3146 204.042 92.2862 203.755 93.1143 203.181C93.8251 202.699 94.3728 202.138 94.7575 201.499V198.995H90.1507V197.45H96.518V205.47H95.1194ZM98.1663 189.156H100.23L104.191 199.65C104.667 200.902 105.049 202.073 105.336 203.162H105.414C105.668 202.158 106.05 200.987 106.558 199.65L110.529 189.156H112.593L106.157 205.597H104.592L98.1663 189.156ZM114.544 189.156H116.364V196.188H125.264V189.156H127.083V205.382H125.264V197.753H116.364V205.382H114.544V189.156ZM130.776 189.156H132.595V196.188H141.496V189.156H143.315V205.382H141.496V197.753H132.595V205.382H130.776V189.156ZM147.007 189.156H148.826V196.188H157.727V189.156H159.546V205.382H157.727V197.753H148.826V205.382H147.007V189.156ZM163.239 189.156H165.058V196.188H173.958V189.156H175.778V205.382H173.958V197.753H165.058V205.382H163.239V189.156ZM179.705 189.156H184.732C186.16 189.156 187.308 189.315 188.175 189.635C188.931 189.915 189.541 190.329 190.004 190.877C190.558 191.529 190.835 192.312 190.835 193.224C190.835 194.333 190.464 195.216 189.72 195.875C189.153 196.377 188.39 196.723 187.432 196.912V196.97C188.586 197.192 189.502 197.561 190.18 198.076C191.113 198.786 191.579 199.722 191.579 200.883C191.579 202.611 190.816 203.853 189.29 204.609C188.24 205.124 186.926 205.382 185.348 205.382H179.705V189.156ZM181.524 190.662V196.188H184.468C185.55 196.188 186.486 196.022 187.275 195.689C188.325 195.246 188.85 194.502 188.85 193.459C188.85 191.594 187.435 190.662 184.605 190.662H181.524ZM181.524 197.655V203.856H185.114C186.339 203.856 187.298 203.677 187.989 203.318C188.263 203.181 188.511 203.005 188.733 202.79C189.28 202.249 189.554 201.584 189.554 200.795C189.554 199.751 189.036 198.956 187.999 198.408C187.034 197.906 185.89 197.655 184.566 197.655H181.524ZM194.704 201.695C196.093 203.26 197.85 204.042 199.976 204.042C201.078 204.042 201.932 203.814 202.538 203.357C203.229 202.836 203.575 202.135 203.575 201.254C203.575 200.368 203.236 199.657 202.558 199.122C202.004 198.685 201.048 198.235 199.692 197.772L198.626 197.411C197.309 196.961 196.357 196.508 195.77 196.051C194.87 195.347 194.42 194.405 194.42 193.224C194.42 191.907 194.883 190.864 195.809 190.095C196.787 189.273 198.085 188.862 199.702 188.862C201.684 188.862 203.435 189.462 204.954 190.662L203.976 192.061C202.77 190.972 201.342 190.427 199.692 190.427C198.597 190.427 197.755 190.681 197.169 191.19C196.647 191.646 196.386 192.266 196.386 193.048C196.386 193.694 196.618 194.232 197.081 194.662C197.589 195.138 198.512 195.595 199.849 196.032L201.012 196.413C202.59 196.928 203.732 197.541 204.436 198.252C205.212 199.034 205.6 200.003 205.6 201.157C205.6 202.624 205.042 203.771 203.927 204.599C202.956 205.323 201.625 205.685 199.937 205.685C197.27 205.685 195.151 204.789 193.579 202.995L194.704 201.695ZM208.96 189.156H213.987C215.415 189.156 216.563 189.315 217.43 189.635C218.186 189.915 218.796 190.329 219.259 190.877C219.813 191.529 220.09 192.312 220.09 193.224C220.09 194.333 219.718 195.216 218.975 195.875C218.408 196.377 217.645 196.723 216.686 196.912V196.97C217.841 197.192 218.757 197.561 219.435 198.076C220.367 198.786 220.833 199.722 220.833 200.883C220.833 202.611 220.071 203.853 218.545 204.609C217.495 205.124 216.181 205.382 214.603 205.382H208.96V189.156ZM210.779 190.662V196.188H213.723C214.805 196.188 215.741 196.022 216.53 195.689C217.58 195.246 218.105 194.502 218.105 193.459C218.105 191.594 216.69 190.662 213.86 190.662H210.779ZM210.779 197.655V203.856H214.368C215.594 203.856 216.553 203.677 217.244 203.318C217.518 203.181 217.766 203.005 217.987 202.79C218.535 202.249 218.809 201.584 218.809 200.795C218.809 199.751 218.29 198.956 217.254 198.408C216.289 197.906 215.144 197.655 213.821 197.655H210.779ZM223.959 189.156H225.778V196.188H234.678V189.156H236.498V205.382H234.678V197.753H225.778V205.382H223.959V189.156ZM240.425 189.156H245.452C246.88 189.156 248.028 189.315 248.895 189.635C249.651 189.915 250.261 190.329 250.724 190.877C251.278 191.529 251.555 192.312 251.555 193.224C251.555 194.333 251.184 195.216 250.44 195.875C249.873 196.377 249.11 196.723 248.152 196.912V196.97C249.306 197.192 250.222 197.561 250.9 198.076C251.832 198.786 252.299 199.722 252.299 200.883C252.299 202.611 251.536 203.853 250.01 204.609C248.96 205.124 247.646 205.382 246.068 205.382H240.425V189.156ZM242.244 190.662V196.188H245.188C246.27 196.188 247.206 196.022 247.995 195.689C249.045 195.246 249.57 194.502 249.57 193.459C249.57 191.594 248.155 190.662 245.325 190.662H242.244ZM242.244 197.655V203.856H245.834C247.059 203.856 248.018 203.677 248.709 203.318C248.983 203.181 249.231 203.005 249.452 202.79C250 202.249 250.274 201.584 250.274 200.795C250.274 199.751 249.756 198.956 248.719 198.408C247.754 197.906 246.609 197.655 245.286 197.655H242.244ZM255.659 189.156H260.686C262.114 189.156 263.261 189.315 264.129 189.635C264.885 189.915 265.495 190.329 265.958 190.877C266.512 191.529 266.789 192.312 266.789 193.224C266.789 194.333 266.417 195.216 265.674 195.875C265.107 196.377 264.344 196.723 263.385 196.912V196.97C264.54 197.192 265.456 197.561 266.134 198.076C267.066 198.786 267.532 199.722 267.532 200.883C267.532 202.611 266.77 203.853 265.244 204.609C264.194 205.124 262.88 205.382 261.302 205.382H255.659V189.156ZM257.478 190.662V196.188H260.422C261.504 196.188 262.44 196.022 263.229 195.689C264.279 195.246 264.804 194.502 264.804 193.459C264.804 191.594 263.389 190.662 260.559 190.662H257.478ZM257.478 197.655V203.856H261.067C262.293 203.856 263.252 203.677 263.943 203.318C264.217 203.181 264.465 203.005 264.686 202.79C265.234 202.249 265.508 201.584 265.508 200.795C265.508 199.751 264.989 198.956 263.953 198.408C262.988 197.906 261.843 197.655 260.52 197.655H257.478ZM270.892 189.156H275.92C277.348 189.156 278.495 189.315 279.362 189.635C280.119 189.915 280.729 190.329 281.191 190.877C281.746 191.529 282.023 192.312 282.023 193.224C282.023 194.333 281.651 195.216 280.908 195.875C280.341 196.377 279.578 196.723 278.619 196.912V196.97C279.773 197.192 280.689 197.561 281.368 198.076C282.3 198.786 282.766 199.722 282.766 200.883C282.766 202.611 282.003 203.853 280.477 204.609C279.428 205.124 278.114 205.382 276.536 205.382H270.892V189.156ZM272.712 190.662V196.188H275.656C276.738 196.188 277.674 196.022 278.463 195.689C279.512 195.246 280.037 194.502 280.037 193.459C280.037 191.594 278.622 190.662 275.792 190.662H272.712ZM272.712 197.655V203.856H276.301C277.527 203.856 278.485 203.677 279.177 203.318C279.451 203.181 279.698 203.005 279.92 202.79C280.468 202.249 280.742 201.584 280.742 200.795C280.742 199.751 280.223 198.956 279.186 198.408C278.221 197.906 277.077 197.655 275.753 197.655H272.712ZM286.126 189.156H291.153C292.581 189.156 293.729 189.315 294.596 189.635C295.353 189.915 295.962 190.329 296.425 190.877C296.98 191.529 297.257 192.312 297.257 193.224C297.257 194.333 296.885 195.216 296.142 195.875C295.574 196.377 294.811 196.723 293.853 196.912V196.97C295.007 197.192 295.923 197.561 296.601 198.076C297.534 198.786 298 199.722 298 200.883C298 202.611 297.237 203.853 295.711 204.609C294.661 205.124 293.348 205.382 291.77 205.382H286.126V189.156ZM287.945 190.662V196.188H290.889C291.972 196.188 292.907 196.022 293.696 195.689C294.746 195.246 295.271 194.502 295.271 193.459C295.271 191.594 293.856 190.662 291.026 190.662H287.945ZM287.945 197.655V203.856H291.535C292.761 203.856 293.719 203.677 294.41 203.318C294.684 203.181 294.932 203.005 295.154 202.79C295.702 202.249 295.975 201.584 295.975 200.795C295.975 199.751 295.457 198.956 294.42 198.408C293.455 197.906 292.311 197.655 290.987 197.655H287.945ZM1.96594 225.212H6.82699C9.10918 225.212 10.9643 225.688 12.3923 226.64C13.3443 227.265 14.0974 228.077 14.6516 229.075C15.3232 230.294 15.659 231.699 15.659 233.29C15.659 235.279 15.1667 236.958 14.1821 238.328C12.6889 240.401 10.1851 241.438 6.6705 241.438H1.96594V225.212ZM3.80473 226.816V239.814H6.55313C8.37888 239.814 9.8786 239.452 11.0523 238.729C11.9847 238.155 12.6759 237.336 13.1258 236.274C13.491 235.406 13.6735 234.422 13.6735 233.32C13.6735 230.731 12.7998 228.909 11.0523 227.852C9.9112 227.161 8.4506 226.816 6.6705 226.816H3.80473ZM0.195616 261.267H2.25936L6.22058 271.762C6.69658 273.014 7.07803 274.185 7.36494 275.274H7.44318C7.69748 274.269 8.07893 273.099 8.58754 271.762L12.5585 261.267H14.6223L8.18652 277.709H6.6216L0.195616 261.267ZM26.2665 265.679V274.315C26.2665 275.978 25.8459 277.226 25.0048 278.061C24.118 278.941 22.8302 279.381 21.1414 279.381C19.2178 279.381 17.5942 278.873 16.2705 277.856L17.1606 276.535C18.2104 277.416 19.5406 277.856 21.1512 277.856C22.5139 277.856 23.4692 277.399 24.0169 276.486C24.3169 275.991 24.4668 275.391 24.4668 274.687V273.347C24.1213 273.803 23.6648 274.168 23.0975 274.442C22.4129 274.768 21.7217 274.931 21.024 274.931C19.922 274.931 18.9309 274.644 18.0506 274.07C16.6422 273.164 15.938 271.863 15.938 270.168C15.938 268.668 16.5444 267.446 17.7572 266.5C18.7157 265.763 19.8144 265.395 21.0533 265.395C22.4161 265.395 23.5801 265.835 24.5451 266.715L24.8483 265.679H26.2665ZM24.4668 268.701C23.7431 267.514 22.6476 266.921 21.1805 266.921C20.4828 266.921 19.8666 267.084 19.3319 267.41C18.3408 268.01 17.8453 268.926 17.8453 270.158C17.8453 270.967 18.0996 271.671 18.6082 272.271C19.2406 273.027 20.0883 273.405 21.1512 273.405C22.2596 273.405 23.1823 273.017 23.9191 272.241C24.1213 272.033 24.3038 271.782 24.4668 271.488V268.701ZM28.0713 265.679H30.135L32.7563 272.809L32.8541 273.063C33.2062 274.035 33.4605 274.811 33.617 275.391H33.6952C33.8387 274.85 34.1028 274.051 34.4875 272.995L34.5657 272.809L37.187 265.679H39.2507L34.3994 277.699H32.9225L28.0713 265.679ZM49.7408 260.368H51.56V277.552H49.8191V275.831C49.5256 276.268 49.1866 276.627 48.8018 276.907C47.9477 277.513 46.95 277.817 45.8089 277.817C44.6091 277.817 43.5496 277.481 42.6302 276.809C41.0783 275.681 40.3023 273.943 40.3023 271.596C40.3023 270.24 40.5925 269.059 41.1728 268.055C41.8118 266.96 42.7052 266.19 43.8528 265.747C44.4722 265.512 45.108 265.395 45.76 265.395C46.8685 265.395 47.8531 265.727 48.7138 266.393C49.1181 266.706 49.4604 267.087 49.7408 267.537V260.368ZM49.7408 269.542C48.7497 267.794 47.5369 266.921 46.1024 266.921C45.2156 266.921 44.4298 267.217 43.7452 267.811C42.7345 268.678 42.2292 269.953 42.2292 271.635C42.2292 272.783 42.4704 273.748 42.9529 274.53C43.6702 275.704 44.7233 276.291 46.1121 276.291C46.9989 276.291 47.8107 275.984 48.5475 275.371C49.004 274.987 49.4017 274.472 49.7408 273.826V269.542ZM56.5142 260.974H58.6953V263.155H56.5142V260.974ZM56.7 265.679H58.5193V274.452C58.5193 275.547 58.428 276.376 58.2454 276.936C57.7694 278.436 56.3251 279.251 53.9125 279.381L53.2963 277.836C54.6917 277.784 55.647 277.445 56.1621 276.819C56.5207 276.382 56.7 275.587 56.7 274.432V265.679ZM62.6225 260.368H64.4417V267.781C64.9829 267.051 65.6154 266.484 66.3392 266.08C67.1021 265.662 67.8748 265.454 68.6572 265.454C70.1635 265.454 71.2687 265.959 71.9729 266.97C72.4946 267.713 72.7554 268.73 72.7554 270.021V277.494H70.9166V270.246C70.9166 269.242 70.7536 268.492 70.4276 267.997C70.0103 267.358 69.3321 267.038 68.3932 267.038C67.7542 267.038 67.1249 267.224 66.5055 267.596C65.6122 268.137 64.9242 268.932 64.4417 269.982V277.494H62.6225V260.368ZM76.4478 260.368H78.2671V267.537C78.5866 267.022 78.9909 266.595 79.4799 266.256C80.3145 265.682 81.2339 265.395 82.2381 265.395C83.2227 265.395 84.1355 265.649 84.9767 266.158C86.0852 266.823 86.8644 267.814 87.3143 269.131C87.5751 269.881 87.7055 270.703 87.7055 271.596C87.7055 273.278 87.2784 274.677 86.4243 275.792C85.3875 277.142 83.9758 277.817 82.1892 277.817C80.9764 277.817 79.9168 277.451 79.0104 276.721C78.7105 276.486 78.4301 276.19 78.1693 275.831L77.9443 277.552H76.4478V260.368ZM78.2671 273.894C78.6322 274.573 79.0756 275.107 79.5973 275.498C80.308 276.027 81.0807 276.291 81.9153 276.291C83.1933 276.291 84.1942 275.772 84.918 274.736C85.4918 273.921 85.7787 272.887 85.7787 271.635C85.7787 270.696 85.6059 269.865 85.2603 269.141C84.9408 268.463 84.4909 267.928 83.9106 267.537C83.3042 267.126 82.6326 266.921 81.8957 266.921C80.4612 266.921 79.2517 267.794 78.2671 269.542V273.894ZM99.0172 260.368H100.836V277.552H99.0955V275.831C98.802 276.268 98.463 276.627 98.0783 276.907C97.2241 277.513 96.2264 277.817 95.0853 277.817C93.8856 277.817 92.826 277.481 91.9066 276.809C90.3547 275.681 89.5787 273.943 89.5787 271.596C89.5787 270.24 89.8689 269.059 90.4492 268.055C91.0883 266.96 91.9816 266.19 93.1292 265.747C93.7486 265.512 94.3844 265.395 95.0364 265.395C96.1449 265.395 97.1295 265.727 97.9902 266.393C98.3945 266.706 98.7368 267.087 99.0172 267.537V260.368ZM99.0172 269.542C98.0261 267.794 96.8133 266.921 95.3788 266.921C94.492 266.921 93.7062 267.217 93.0216 267.811C92.0109 268.678 91.5056 269.953 91.5056 271.635C91.5056 272.783 91.7468 273.748 92.2293 274.53C92.9466 275.704 93.9997 276.291 95.3885 276.291C96.2753 276.291 97.0871 275.984 97.824 275.371C98.2804 274.987 98.6781 274.472 99.0172 273.826V269.542ZM104.49 260.368H106.309V267.781C106.85 267.051 107.483 266.484 108.206 266.08C108.969 265.662 109.742 265.454 110.525 265.454C112.031 265.454 113.136 265.959 113.84 266.97C114.362 267.713 114.623 268.73 114.623 270.021V277.494H112.784V270.246C112.784 269.242 112.621 268.492 112.295 267.997C111.878 267.358 111.199 267.038 110.26 267.038C109.621 267.038 108.992 267.224 108.373 267.596C107.479 268.137 106.792 268.932 106.309 269.982V277.494H104.49V260.368ZM119.616 260.974H121.797V263.155H119.616V260.974ZM119.802 265.679H121.621V274.452C121.621 275.547 121.53 276.376 121.347 276.936C120.871 278.436 119.427 279.251 117.014 279.381L116.398 277.836C117.793 277.784 118.749 277.445 119.264 276.819C119.622 276.382 119.802 275.587 119.802 274.432V265.679ZM124.022 265.679H126.086L128.707 272.809L128.805 273.063C129.157 274.035 129.412 274.811 129.568 275.391H129.646C129.79 274.85 130.054 274.051 130.439 272.995L130.517 272.809L133.138 265.679H135.202L130.351 277.699H128.874L124.022 265.679ZM145.692 260.368H147.511V277.552H145.77V275.831C145.477 276.268 145.138 276.627 144.753 276.907C143.899 277.513 142.901 277.817 141.76 277.817C140.56 277.817 139.501 277.481 138.581 276.809C137.029 275.681 136.253 273.943 136.253 271.596C136.253 270.24 136.544 269.059 137.124 268.055C137.763 266.96 138.656 266.19 139.804 265.747C140.423 265.512 141.059 265.395 141.711 265.395C142.82 265.395 143.804 265.727 144.665 266.393C145.069 266.706 145.412 267.087 145.692 267.537V260.368ZM145.692 269.542C144.701 267.794 143.488 266.921 142.053 266.921C141.167 266.921 140.381 267.217 139.696 267.811C138.686 268.678 138.18 269.953 138.18 271.635C138.18 272.783 138.422 273.748 138.904 274.53C139.621 275.704 140.674 276.291 142.063 276.291C142.95 276.291 143.762 275.984 144.499 275.371C144.955 274.987 145.353 274.472 145.692 273.826V269.542ZM149.463 265.679H151.526L154.148 272.809L154.245 273.063C154.598 274.035 154.852 274.811 155.008 275.391H155.087C155.23 274.85 155.494 274.051 155.879 272.995L155.957 272.809L158.578 265.679H160.642L155.791 277.699H154.314L149.463 265.679ZM171.132 260.368H172.951V277.552H171.21V275.831C170.917 276.268 170.578 276.627 170.193 276.907C169.339 277.513 168.341 277.817 167.2 277.817C166.001 277.817 164.941 277.481 164.022 276.809C162.47 275.681 161.694 273.943 161.694 271.596C161.694 270.24 161.984 269.059 162.564 268.055C163.203 266.96 164.097 266.19 165.244 265.747C165.864 265.512 166.499 265.395 167.151 265.395C168.26 265.395 169.244 265.727 170.105 266.393C170.509 266.706 170.852 267.087 171.132 267.537V260.368ZM171.132 269.542C170.141 267.794 168.928 266.921 167.494 266.921C166.607 266.921 165.821 267.217 165.137 267.811C164.126 268.678 163.621 269.953 163.621 271.635C163.621 272.783 163.862 273.748 164.344 274.53C165.062 275.704 166.115 276.291 167.503 276.291C168.39 276.291 169.202 275.984 169.939 275.371C170.395 274.987 170.793 274.472 171.132 273.826V269.542ZM176.605 260.368H178.424V267.781C178.965 267.051 179.598 266.484 180.321 266.08C181.084 265.662 181.857 265.454 182.639 265.454C184.146 265.454 185.251 265.959 185.955 266.97C186.477 267.713 186.738 268.73 186.738 270.021V277.494H184.899V270.246C184.899 269.242 184.736 268.492 184.41 267.997C183.992 267.358 183.314 267.038 182.375 267.038C181.736 267.038 181.107 267.224 180.488 267.596C179.594 268.137 178.906 268.932 178.424 269.982V277.494H176.605V260.368ZM190.43 260.368H192.249V267.537C192.569 267.022 192.973 266.595 193.462 266.256C194.297 265.682 195.216 265.395 196.22 265.395C197.205 265.395 198.118 265.649 198.959 266.158C200.067 266.823 200.847 267.814 201.297 269.131C201.557 269.881 201.688 270.703 201.688 271.596C201.688 273.278 201.261 274.677 200.406 275.792C199.37 277.142 197.958 277.817 196.171 277.817C194.959 277.817 193.899 277.451 192.993 276.721C192.693 276.486 192.412 276.19 192.151 275.831L191.927 277.552H190.43V260.368ZM192.249 273.894C192.614 274.573 193.058 275.107 193.579 275.498C194.29 276.027 195.063 276.291 195.898 276.291C197.176 276.291 198.176 275.772 198.9 274.736C199.474 273.921 199.761 272.887 199.761 271.635C199.761 270.696 199.588 269.865 199.243 269.141C198.923 268.463 198.473 267.928 197.893 267.537C197.286 267.126 196.615 266.921 195.878 266.921C194.443 266.921 193.234 267.794 192.249 269.542V273.894ZM212.999 260.368H214.819V277.552H213.078V275.831C212.784 276.268 212.445 276.627 212.06 276.907C211.206 277.513 210.209 277.817 209.068 277.817C207.868 277.817 206.808 277.481 205.889 276.809C204.337 275.681 203.561 273.943 203.561 271.596C203.561 270.24 203.851 269.059 204.431 268.055C205.07 266.96 205.964 266.19 207.111 265.747C207.731 265.512 208.367 265.395 209.019 265.395C210.127 265.395 211.112 265.727 211.972 266.393C212.377 266.706 212.719 267.087 212.999 267.537V260.368ZM212.999 269.542C212.008 267.794 210.795 266.921 209.361 266.921C208.474 266.921 207.688 267.217 207.004 267.811C205.993 268.678 205.488 269.953 205.488 271.635C205.488 272.783 205.729 273.748 206.212 274.53C206.929 275.704 207.982 276.291 209.371 276.291C210.258 276.291 211.069 275.984 211.806 275.371C212.263 274.987 212.66 274.472 212.999 273.826V269.542ZM218.472 260.368H220.291V267.781C220.832 267.051 221.465 266.484 222.189 266.08C222.952 265.662 223.724 265.454 224.507 265.454C226.013 265.454 227.118 265.959 227.822 266.97C228.344 267.713 228.605 268.73 228.605 270.021V277.494H226.766V270.246C226.766 269.242 226.603 268.492 226.277 267.997C225.86 267.358 225.182 267.038 224.243 267.038C223.604 267.038 222.974 267.224 222.355 267.596C221.462 268.137 220.774 268.932 220.291 269.982V277.494H218.472V260.368ZM230.595 265.679H232.659L235.28 272.809L235.378 273.063C235.73 274.035 235.985 274.811 236.141 275.391H236.219C236.363 274.85 236.627 274.051 237.012 272.995L237.09 272.809L239.711 265.679H241.775L236.924 277.699H235.447L230.595 265.679ZM252.265 260.368H254.084V277.552H252.343V275.831C252.05 276.268 251.711 276.627 251.326 276.907C250.472 277.513 249.474 277.817 248.333 277.817C247.133 277.817 246.074 277.481 245.154 276.809C243.602 275.681 242.827 273.943 242.827 271.596C242.827 270.24 243.117 269.059 243.697 268.055C244.336 266.96 245.229 266.19 246.377 265.747C246.996 265.512 247.632 265.395 248.284 265.395C249.393 265.395 250.377 265.727 251.238 266.393C251.642 266.706 251.985 267.087 252.265 267.537V260.368ZM252.265 269.542C251.274 267.794 250.061 266.921 248.627 266.921C247.74 266.921 246.954 267.217 246.269 267.811C245.259 268.678 244.753 269.953 244.753 271.635C244.753 272.783 244.995 273.748 245.477 274.53C246.194 275.704 247.247 276.291 248.636 276.291C249.523 276.291 250.335 275.984 251.072 275.371C251.528 274.987 251.926 274.472 252.265 273.826V269.542ZM257.738 260.368H259.557V267.781C260.098 267.051 260.73 266.484 261.454 266.08C262.217 265.662 262.99 265.454 263.772 265.454C265.279 265.454 266.384 265.959 267.088 266.97C267.61 267.713 267.87 268.73 267.87 270.021V277.494H266.032V270.246C266.032 269.242 265.869 268.492 265.543 267.997C265.125 267.358 264.447 267.038 263.508 267.038C262.869 267.038 262.24 267.224 261.621 267.596C260.727 268.137 260.039 268.932 259.557 269.982V277.494H257.738V260.368ZM272.864 260.974H275.045V263.155H272.864V260.974ZM273.05 265.679H274.869V274.452C274.869 275.547 274.778 276.376 274.595 276.936C274.119 278.436 272.675 279.251 270.262 279.381L269.646 277.836C271.041 277.784 271.997 277.445 272.512 276.819C272.87 276.382 273.05 275.587 273.05 274.432V265.679ZM278.972 260.368H280.791V267.781C281.332 267.051 281.965 266.484 282.689 266.08C283.452 265.662 284.224 265.454 285.007 265.454C286.513 265.454 287.618 265.959 288.322 266.97C288.844 267.713 289.105 268.73 289.105 270.021V277.494H287.266V270.246C287.266 269.242 287.103 268.492 286.777 267.997C286.36 267.358 285.682 267.038 284.743 267.038C284.104 267.038 283.474 267.224 282.855 267.596C281.962 268.137 281.274 268.932 280.791 269.982V277.494H278.972V260.368ZM294.098 260.974H296.279V263.155H294.098V260.974ZM294.284 265.679H296.103V274.452C296.103 275.547 296.012 276.376 295.829 276.936C295.353 278.436 293.909 279.251 291.497 279.381L290.88 277.836C292.276 277.784 293.231 277.445 293.746 276.819C294.105 276.382 294.284 275.587 294.284 274.432V265.679ZM10.4752 296.424H12.2945V313.608H10.5535V311.887C10.2601 312.324 9.92098 312.682 9.53627 312.963C8.68208 313.569 7.68444 313.872 6.54335 313.872C5.34357 313.872 4.28399 313.537 3.36459 312.865C1.81271 311.737 1.03676 309.999 1.03676 307.652C1.03676 306.296 1.32693 305.115 1.90725 304.111C2.54627 303.016 3.43958 302.246 4.58719 301.803C5.20664 301.568 5.84239 301.451 6.49445 301.451C7.60294 301.451 8.58754 301.783 9.44824 302.448C9.85252 302.761 10.1948 303.143 10.4752 303.593V296.424ZM10.4752 305.598C9.48411 303.85 8.27129 302.977 6.83677 302.977C5.94998 302.977 5.16426 303.273 4.4796 303.867C3.46892 304.734 2.96358 306.009 2.96358 307.691C2.96358 308.839 3.20484 309.804 3.68736 310.586C4.40462 311.76 5.45768 312.347 6.84655 312.347C7.73335 312.347 8.54515 312.04 9.28197 311.427C9.73841 311.043 10.1362 310.527 10.4752 309.882V305.598ZM15.9478 296.424H17.767V303.837C18.3082 303.107 18.9407 302.54 19.6645 302.136C20.4274 301.718 21.2001 301.51 21.9825 301.51C23.4888 301.51 24.594 302.015 25.2982 303.026C25.8199 303.769 26.0807 304.786 26.0807 306.077V313.55H24.2419V306.302C24.2419 305.298 24.0789 304.548 23.7528 304.053C23.3355 303.414 22.6574 303.094 21.7184 303.094C21.0794 303.094 20.4502 303.28 19.8308 303.652C18.9374 304.193 18.2495 304.988 17.767 306.038V313.55H15.9478V296.424ZM29.7731 296.424H31.5923V303.593C31.9119 303.078 32.3161 302.651 32.8052 302.312C33.6398 301.738 34.5592 301.451 35.5634 301.451C36.5479 301.451 37.4608 301.705 38.302 302.214C39.4105 302.879 40.1897 303.87 40.6396 305.187C40.9004 305.937 41.0308 306.759 41.0308 307.652C41.0308 309.334 40.6037 310.733 39.7495 311.848C38.7128 313.198 37.3011 313.872 35.5144 313.872C34.3016 313.872 33.242 313.507 32.3357 312.777C32.0357 312.542 31.7554 312.246 31.4945 311.887L31.2696 313.608H29.7731V296.424ZM31.5923 309.95C31.9575 310.628 32.4009 311.163 32.9225 311.554C33.6333 312.083 34.406 312.347 35.2406 312.347C36.5186 312.347 37.5195 311.828 38.2433 310.792C38.8171 309.976 39.104 308.943 39.104 307.691C39.104 306.752 38.9312 305.921 38.5856 305.197C38.2661 304.519 37.8162 303.984 37.2359 303.593C36.6295 303.182 35.9578 302.977 35.221 302.977C33.7865 302.977 32.5769 303.85 31.5923 305.598V309.95ZM52.3425 296.424H54.1617V313.608H52.4207V311.887C52.1273 312.324 51.7883 312.682 51.4035 312.963C50.5494 313.569 49.5517 313.872 48.4106 313.872C47.2108 313.872 46.1513 313.537 45.2319 312.865C43.68 311.737 42.904 309.999 42.904 307.652C42.904 306.296 43.1942 305.115 43.7745 304.111C44.4135 303.016 45.3068 302.246 46.4545 301.803C47.0739 301.568 47.7097 301.451 48.3617 301.451C49.4702 301.451 50.4548 301.783 51.3155 302.448C51.7198 302.761 52.0621 303.143 52.3425 303.593V296.424ZM52.3425 305.598C51.3514 303.85 50.1386 302.977 48.704 302.977C47.8172 302.977 47.0315 303.273 46.3469 303.867C45.3362 304.734 44.8308 306.009 44.8308 307.691C44.8308 308.839 45.0721 309.804 45.5546 310.586C46.2719 311.76 47.3249 312.347 48.7138 312.347C49.6006 312.347 50.4124 312.04 51.1492 311.427C51.6057 311.043 52.0034 310.527 52.3425 309.882V305.598ZM1.97572 346.799C3.18854 347.803 4.55459 348.305 6.07387 348.305C7.82789 348.305 8.7049 347.724 8.7049 346.564C8.7049 346.029 8.40496 345.573 7.80507 345.194C7.42036 344.953 6.82047 344.689 6.00541 344.402L4.9882 344.04C3.86015 343.643 3.04183 343.235 2.53323 342.818C1.90725 342.303 1.59427 341.608 1.59427 340.734C1.59427 339.691 2.04093 338.863 2.93424 338.25C3.67106 337.741 4.59371 337.487 5.7022 337.487C7.31929 337.487 8.80923 337.957 10.172 338.896L9.23307 340.294C8.14414 339.466 6.99979 339.052 5.80001 339.052C5.26533 339.052 4.81215 339.15 4.44048 339.346C3.84711 339.645 3.55043 340.092 3.55043 340.686C3.55043 341.155 3.75908 341.523 4.1764 341.791C4.43722 341.96 5.02733 342.215 5.94672 342.554L7.18888 343.013C8.31693 343.437 9.15482 343.887 9.70255 344.363C10.3742 344.943 10.71 345.664 10.71 346.525C10.71 347.646 10.2209 348.533 9.24285 349.185C8.49299 349.681 7.39102 349.928 5.93694 349.928C4.07859 349.928 2.43216 349.348 0.997641 348.187L1.97572 346.799ZM13.5417 332.479H15.3609V339.649C15.6804 339.134 16.0847 338.707 16.5737 338.367C17.4084 337.794 18.3278 337.507 19.3319 337.507C20.3165 337.507 21.2294 337.761 22.0706 338.27C23.179 338.935 23.9582 339.926 24.4082 341.243C24.669 341.993 24.7994 342.814 24.7994 343.708C24.7994 345.39 24.3723 346.789 23.5181 347.904C22.4813 349.253 21.0697 349.928 19.283 349.928C18.0702 349.928 17.0106 349.563 16.1043 348.833C15.8043 348.598 15.5239 348.301 15.2631 347.943L15.0382 349.664H13.5417V332.479ZM15.3609 346.006C15.7261 346.684 16.1695 347.219 16.6911 347.61C17.4019 348.138 18.1745 348.403 19.0092 348.403C20.2872 348.403 21.2881 347.884 22.0119 346.847C22.5857 346.032 22.8726 344.999 22.8726 343.747C22.8726 342.808 22.6998 341.977 22.3542 341.253C22.0347 340.575 21.5848 340.04 21.0044 339.649C20.398 339.238 19.7264 339.033 18.9896 339.033C17.5551 339.033 16.3455 339.906 15.3609 341.654V346.006ZM36.1111 332.479H37.9303V349.664H36.1893V347.943C35.8959 348.38 35.5568 348.738 35.1721 349.019C34.3179 349.625 33.3203 349.928 32.1792 349.928C30.9794 349.928 29.9198 349.593 29.0004 348.921C27.4486 347.793 26.6726 346.055 26.6726 343.708C26.6726 342.352 26.9628 341.171 27.5431 340.167C28.1821 339.072 29.0754 338.302 30.223 337.859C30.8425 337.624 31.4782 337.507 32.1303 337.507C33.2388 337.507 34.2234 337.839 35.0841 338.504C35.4884 338.817 35.8307 339.199 36.1111 339.649V332.479ZM36.1111 341.654C35.12 339.906 33.9071 339.033 32.4726 339.033C31.5858 339.033 30.8001 339.329 30.1154 339.923C29.1048 340.79 28.5994 342.065 28.5994 343.747C28.5994 344.895 28.8407 345.86 29.3232 346.642C30.0405 347.816 31.0935 348.403 32.4824 348.403C33.3692 348.403 34.181 348.096 34.9178 347.483C35.3743 347.098 35.772 346.583 36.1111 345.938V341.654ZM41.5836 332.479H43.4029V339.893C43.9441 339.163 44.5765 338.596 45.3003 338.191C46.0632 337.774 46.8359 337.565 47.6184 337.565C49.1246 337.565 50.2298 338.071 50.9341 339.081C51.4557 339.825 51.7165 340.842 51.7165 342.133V349.606H49.8777V342.358C49.8777 341.354 49.7147 340.604 49.3887 340.108C48.9714 339.469 48.2932 339.15 47.3543 339.15C46.7153 339.15 46.086 339.336 45.4666 339.707C44.5733 340.249 43.8854 341.044 43.4029 342.094V349.606H41.5836V332.479ZM55.409 332.479H57.2282V339.649C57.5477 339.134 57.952 338.707 58.441 338.367C59.2756 337.794 60.195 337.507 61.1992 337.507C62.1838 337.507 63.0967 337.761 63.9378 338.27C65.0463 338.935 65.8255 339.926 66.2754 341.243C66.5362 341.993 66.6667 342.814 66.6667 343.708C66.6667 345.39 66.2396 346.789 65.3854 347.904C64.3486 349.253 62.9369 349.928 61.1503 349.928C59.9375 349.928 58.8779 349.563 57.9715 348.833C57.6716 348.598 57.3912 348.301 57.1304 347.943L56.9054 349.664H55.409V332.479ZM57.2282 346.006C57.5933 346.684 58.0367 347.219 58.5584 347.61C59.2691 348.138 60.0418 348.403 60.8764 348.403C62.1545 348.403 63.1554 347.884 63.8791 346.847C64.4529 346.032 64.7398 344.999 64.7398 343.747C64.7398 342.808 64.567 341.977 64.2215 341.253C63.902 340.575 63.452 340.04 62.8717 339.649C62.2653 339.238 61.5937 339.033 60.8569 339.033C59.4224 339.033 58.2128 339.906 57.2282 341.654V346.006ZM77.9783 332.479H79.7976V349.664H78.0566V347.943C77.7632 348.38 77.4241 348.738 77.0394 349.019C76.1852 349.625 75.1876 349.928 74.0465 349.928C72.8467 349.928 71.7871 349.593 70.8677 348.921C69.3158 347.793 68.5399 346.055 68.5399 343.708C68.5399 342.352 68.83 341.171 69.4104 340.167C70.0494 339.072 70.9427 338.302 72.0903 337.859C72.7098 337.624 73.3455 337.507 73.9976 337.507C75.106 337.507 76.0906 337.839 76.9514 338.504C77.3556 338.817 77.698 339.199 77.9783 339.649V332.479ZM77.9783 341.654C76.9872 339.906 75.7744 339.033 74.3399 339.033C73.4531 339.033 72.6674 339.329 71.9827 339.923C70.972 340.79 70.4667 342.065 70.4667 343.747C70.4667 344.895 70.708 345.86 71.1905 346.642C71.9077 347.816 72.9608 348.403 74.3497 348.403C75.2365 348.403 76.0483 348.096 76.7851 347.483C77.2415 347.098 77.6393 346.583 77.9783 345.938V341.654ZM83.4509 332.479H85.2701V339.893C85.8113 339.163 86.4438 338.596 87.1676 338.191C87.9305 337.774 88.7032 337.565 89.4856 337.565C90.9919 337.565 92.0971 338.071 92.8013 339.081C93.323 339.825 93.5838 340.842 93.5838 342.133V349.606H91.745V342.358C91.745 341.354 91.582 340.604 91.256 340.108C90.8386 339.469 90.1605 339.15 89.2216 339.15C88.5825 339.15 87.9533 339.336 87.3339 339.707C86.4406 340.249 85.7526 341.044 85.2701 342.094V349.606H83.4509V332.479ZM97.2762 332.479H99.0955V339.649C99.415 339.134 99.8192 338.707 100.308 338.367C101.143 337.794 102.062 337.507 103.066 337.507C104.051 337.507 104.964 337.761 105.805 338.27C106.914 338.935 107.693 339.926 108.143 341.243C108.404 341.993 108.534 342.814 108.534 343.708C108.534 345.39 108.107 346.789 107.253 347.904C106.216 349.253 104.804 349.928 103.018 349.928C101.805 349.928 100.745 349.563 99.8388 348.833C99.5389 348.598 99.2585 348.301 98.9977 347.943L98.7727 349.664H97.2762V332.479ZM99.0955 346.006C99.4606 346.684 99.904 347.219 100.426 347.61C101.136 348.138 101.909 348.403 102.744 348.403C104.022 348.403 105.023 347.884 105.746 346.847C106.32 346.032 106.607 344.999 106.607 343.747C106.607 342.808 106.434 341.977 106.089 341.253C105.769 340.575 105.319 340.04 104.739 339.649C104.133 339.238 103.461 339.033 102.724 339.033C101.29 339.033 100.08 339.906 99.0955 341.654V346.006ZM119.846 332.479H121.665V349.664H119.924V347.943C119.63 348.38 119.291 348.738 118.907 349.019C118.052 349.625 117.055 349.928 115.914 349.928C114.714 349.928 113.654 349.593 112.735 348.921C111.183 347.793 110.407 346.055 110.407 343.708C110.407 342.352 110.697 341.171 111.278 340.167C111.917 339.072 112.81 338.302 113.958 337.859C114.577 337.624 115.213 337.507 115.865 337.507C116.973 337.507 117.958 337.839 118.819 338.504C119.223 338.817 119.565 339.199 119.846 339.649V332.479ZM119.846 341.654C118.854 339.906 117.642 339.033 116.207 339.033C115.32 339.033 114.535 339.329 113.85 339.923C112.839 340.79 112.334 342.065 112.334 343.747C112.334 344.895 112.575 345.86 113.058 346.642C113.775 347.816 114.828 348.403 116.217 348.403C117.104 348.403 117.916 348.096 118.652 347.483C119.109 347.098 119.507 346.583 119.846 345.938V341.654ZM125.318 332.479H127.137V339.893C127.679 339.163 128.311 338.596 129.035 338.191C129.798 337.774 130.57 337.565 131.353 337.565C132.859 337.565 133.964 338.071 134.669 339.081C135.19 339.825 135.451 340.842 135.451 342.133V349.606H133.612V342.358C133.612 341.354 133.449 340.604 133.123 340.108C132.706 339.469 132.028 339.15 131.089 339.15C130.45 339.15 129.821 339.336 129.201 339.707C128.308 340.249 127.62 341.044 127.137 342.094V349.606H125.318V332.479ZM147.692 332.479H149.511V349.664H147.77V347.943C147.477 348.38 147.138 348.738 146.753 349.019C145.899 349.625 144.901 349.928 143.76 349.928C142.56 349.928 141.501 349.593 140.581 348.921C139.029 347.793 138.253 346.055 138.253 343.708C138.253 342.352 138.544 341.171 139.124 340.167C139.763 339.072 140.656 338.302 141.804 337.859C142.423 337.624 143.059 337.507 143.711 337.507C144.82 337.507 145.804 337.839 146.665 338.504C147.069 338.817 147.412 339.199 147.692 339.649V332.479ZM147.692 341.654C146.701 339.906 145.488 339.033 144.053 339.033C143.167 339.033 142.381 339.329 141.696 339.923C140.686 340.79 140.18 342.065 140.18 343.747C140.18 344.895 140.422 345.86 140.904 346.642C141.621 347.816 142.674 348.403 144.063 348.403C144.95 348.403 145.762 348.096 146.499 347.483C146.955 347.098 147.353 346.583 147.692 345.938V341.654ZM153.164 332.479H154.984V339.649C155.303 339.134 155.707 338.707 156.197 338.367C157.031 337.794 157.951 337.507 158.955 337.507C159.939 337.507 160.852 337.761 161.693 338.27C162.802 338.935 163.581 339.926 164.031 341.243C164.292 341.993 164.422 342.814 164.422 343.708C164.422 345.39 163.995 346.789 163.141 347.904C162.104 349.253 160.692 349.928 158.906 349.928C157.693 349.928 156.633 349.563 155.727 348.833C155.427 348.598 155.147 348.301 154.886 347.943L154.661 349.664H153.164V332.479ZM154.984 346.006C155.349 346.684 155.792 347.219 156.314 347.61C157.025 348.138 157.797 348.403 158.632 348.403C159.91 348.403 160.911 347.884 161.635 346.847C162.208 346.032 162.495 344.999 162.495 343.747C162.495 342.808 162.323 341.977 161.977 341.253C161.657 340.575 161.208 340.04 160.627 339.649C160.021 339.238 159.349 339.033 158.612 339.033C157.178 339.033 155.968 339.906 154.984 341.654V346.006ZM175.734 332.479H177.553V349.664H175.812V347.943C175.519 348.38 175.18 348.738 174.795 349.019C173.941 349.625 172.943 349.928 171.802 349.928C170.602 349.928 169.543 349.593 168.623 348.921C167.071 347.793 166.295 346.055 166.295 343.708C166.295 342.352 166.586 341.171 167.166 340.167C167.805 339.072 168.698 338.302 169.846 337.859C170.465 337.624 171.101 337.507 171.753 337.507C172.862 337.507 173.846 337.839 174.707 338.504C175.111 338.817 175.453 339.199 175.734 339.649V332.479ZM175.734 341.654C174.743 339.906 173.53 339.033 172.095 339.033C171.209 339.033 170.423 339.329 169.738 339.923C168.728 340.79 168.222 342.065 168.222 343.747C168.222 344.895 168.463 345.86 168.946 346.642C169.663 347.816 170.716 348.403 172.105 348.403C172.992 348.403 173.804 348.096 174.541 347.483C174.997 347.098 175.395 346.583 175.734 345.938V341.654ZM202.734 332.479H204.554V349.664H202.813V347.943C202.519 348.38 202.18 348.738 201.795 349.019C200.941 349.625 199.944 349.928 198.802 349.928C197.603 349.928 196.543 349.593 195.624 348.921C194.072 347.793 193.296 346.055 193.296 343.708C193.296 342.352 193.586 341.171 194.166 340.167C194.805 339.072 195.699 338.302 196.846 337.859C197.466 337.624 198.101 337.507 198.754 337.507C199.862 337.507 200.847 337.839 201.707 338.504C202.112 338.817 202.454 339.199 202.734 339.649V332.479ZM202.734 341.654C201.743 339.906 200.53 339.033 199.096 339.033C198.209 339.033 197.423 339.329 196.739 339.923C195.728 340.79 195.223 342.065 195.223 343.747C195.223 344.895 195.464 345.86 195.946 346.642C196.664 347.816 197.717 348.403 199.106 348.403C199.992 348.403 200.804 348.096 201.541 347.483C201.997 347.098 202.395 346.583 202.734 345.938V341.654Z" fill="url(#paint0_linear_1_1259)"/>
<defs>
<linearGradient id="paint0_linear_1_1259" x1="0" y1="201.378" x2="300.466" y2="201.378" gradientUnits="userSpaceOnUse">
<stop stop-color="white"/>
</linearGradient>
</defs>
</svg>
